<?xml version="1.0" encoding="UTF-8" standalone="no"?>
<!-- Created with Inkscape (http://www.inkscape.org/) -->

<svg
   xmlns:dc="http://purl.org/dc/elements/1.1/"
   xmlns:cc="http://creativecommons.org/ns#"
   xmlns:rdf="http://www.w3.org/1999/02/22-rdf-syntax-ns#"
   xmlns:svg="http://www.w3.org/2000/svg"
   xmlns="http://www.w3.org/2000/svg"
   xmlns:sodipodi="http://sodipodi.sourceforge.net/DTD/sodipodi-0.dtd"
   xmlns:inkscape="http://www.inkscape.org/namespaces/inkscape"
   id="svg3505"
   version="1.1"
   inkscape:version="0.91 r13725"
   width="1920"
   height="1920"
   viewBox="0 0 1920 1920"
   sodipodi:docname="lowercase-j.svg">
  <metadata
     id="metadata3511">
    <rdf:RDF>
      <cc:Work
         rdf:about="">
        <dc:format>image/svg+xml</dc:format>
        <dc:type
           rdf:resource="http://purl.org/dc/dcmitype/StillImage" />
        <dc:title></dc:title>
      </cc:Work>
    </rdf:RDF>
  </metadata>
  <defs
     id="defs3509" />
  <sodipodi:namedview
     pagecolor="#ffffff"
     bordercolor="#666666"
     borderopacity="1"
     objecttolerance="10"
     gridtolerance="10"
     guidetolerance="10"
     inkscape:pageopacity="0"
     inkscape:pageshadow="2"
     inkscape:window-width="1280"
     inkscape:window-height="751"
     id="namedview3507"
     showgrid="false"
     inkscape:zoom="0.20218835"
     inkscape:cx="752.493"
     inkscape:cy="595.46925"
     inkscape:window-x="0"
     inkscape:window-y="1"
     inkscape:window-maximized="1"
     inkscape:current-layer="svg3505"
     showguides="false">
    <inkscape:grid
       type="xygrid"
       id="grid4466" />
  </sodipodi:namedview>
  <path
     style="fill:none;stroke:#000000;stroke-opacity:1"
     d="m -1070.2896,1606.8964 c -11.6224,-2.6505 -19.8152,-8.6674 -24.2124,-17.7819 -4.9696,-10.3012 -4.6392,-25.1353 0.769,-34.5198 1.3054,-2.2651 2.1641,-4.4026 1.9084,-4.75 -0.2558,-0.3475 -0.232,-0.4737 0.053,-0.2805 0.2848,0.1932 2.1335,-1.1725 4.1081,-3.0348 5.2465,-4.9481 10.9853,-7.5155 18.07,-8.0842 8.5338,-0.685 17.596,1.2558 24.9665,5.3471 3.5943,1.9951 7.5644,3.4207 9.5265,3.4207 2.8519,0 3.7905,-0.6471 6.1641,-4.25 4.3315,-6.5746 21.5552,-41.598 28.4485,-57.8484 l 6.19257,-14.5984 -3.1427,-8.9016 c -1.7285,-4.8959 -3.67297,-10.3682 -4.32127,-12.1607 -0.6482,-1.7925 -1.5549,-2.9175 -2.0147,-2.5 -0.4599,0.4175 -0.5199,0.2086 -0.1333,-0.4641 0.3865,-0.6728 -0.3968,-4.0478 -1.7407,-7.5 -1.344,-3.4523 -3.4222,-8.9768 -4.6183,-12.2768 -1.1961,-3.3 -2.776,-7.35 -3.511,-9 -0.735,-1.65 -2.3065,-5.7 -3.4923,-9 -1.9337,-5.3815 -5.112,-13.6033 -11.2903,-29.2064 -1.1338,-2.8636 -2.4317,-4.9777 -2.8841,-4.6981 -0.4524,0.2796 -0.5863,-0.1075 -0.2974,-0.8603 0.2889,-0.7527 -2.2263,-8.3136 -5.5893,-16.8019 -10.2253,-25.8094 -16.0206,-40.3312 -16.9342,-42.4333 -0.4781,-1.1 -1.6404,-4.1375 -2.5828,-6.75 -0.9424,-2.6125 -2.1289,-4.75 -2.6367,-4.75 -0.5077,0 -0.6827,-0.3891 -0.3888,-0.8646 0.5598,-0.9057 -8.2952,-23.0278 -12.663,-31.6354 -3.9425,-7.7696 -5.7004,-8.8913 -15.0048,-9.575 -10.9851,-0.8072 -11.7485,-1.7803 -11.7485,-14.9768 0,-5.893 0.4278,-10.0946 1.0682,-10.4903 0.5875,-0.3631 0.8698,-1.1772 0.6273,-1.8091 -0.3294,-0.8583 16.1257,-1.1319 65.0743,-1.082 l 65.51517,0.067 1.8575,2.2939 c 1.5167,1.873 1.8575,4.0252 1.8575,11.7286 0,8.6838 -0.1954,9.6301 -2.4545,11.8893 -2.0903,2.0903 -3.3962,2.4545 -8.8,2.4545 -7.1615,0 -8.7455,0.9982 -8.7455,5.511 0,3.0562 5.0567,22.226 12.8259,48.6224 2.1638,7.3516 4.9831,17.272 6.2651,22.0452 1.282,4.7733 2.7555,8.4162 3.2745,8.0955 0.5189,-0.3207 0.6331,-0.081 0.2537,0.533 -0.3794,0.6139 0.481,5.0709 1.9121,9.9045 3.4435,11.631 5.5979,19.2822 6.2057,22.0384 0.2729,1.2375 0.7812,2.249 1.1296,2.2479 1.14,0 8.2271,-19.0372 7.5166,-20.1868 -0.3807,-0.6161 -0.247,-0.845 0.2971,-0.5087 0.5594,0.3457 3.8595,-6.6489 7.594,-16.0955 16.7324,-42.3249 20.2272,-51.3292 23.3664,-60.2033 6.2154,-17.5702 4.2729,-22.0036 -9.6407,-22.0036 -6.3063,0 -8.2156,-0.3818 -10.3651,-2.0726 -2.5552,-2.0099 -2.6349,-2.3984 -2.6349,-12.845 0,-9.0392 0.2816,-11.0062 1.75,-12.2256 1.4807,-1.2296 9.2124,-1.4402 50.2386,-1.3687 l 48.4886,0.085 1.2466,2.4637 c 0.7201,1.423 1.2529,6.3137 1.2615,11.5787 0.012,7.7212 -0.3023,9.5181 -2.0579,11.75 -1.851,2.3533 -2.7526,2.6349 -8.4349,2.6349 -3.4993,0 -7.6291,0.4768 -9.1774,1.0595 -3.2535,1.2246 -10.3151,7.7693 -10.3151,9.5601 0,0.6676 -0.3412,1.3637 -0.7582,1.5471 -1.889,0.8304 -13.22,22.711 -31.7617,61.3333 -10.073,20.9818 -32.2442,67.9076 -34.4908,73 -0.9705,2.2 -4.0651,8.8722 -6.8769,14.8272 -2.8118,5.955 -5.1124,10.9747 -5.1124,11.1549 0,0.1802 -3.15,6.9383 -7,15.0179 -3.85,8.0796 -7,14.8211 -7,14.9811 0,0.1599 -2.8601,6.3047 -6.3557,13.6549 -3.4957,7.3502 -9.4081,19.889 -13.1387,27.864 -14.735,31.4993 -27.52937,57.217 -33.61737,67.574 -10.795,18.3645 -23.8903,29.8425 -37.8882,33.209 -7.6483,1.8395 -18.1539,2.2336 -24,0.9004 z"
     id="path4455"
     inkscape:connector-curvature="0" />
  <path
     style="fill:none;stroke:#000000;stroke-opacity:1"
     d="m -622.87373,1470.2432 c -8.5996,-3.4785 -41.49,-5.1104 -121.9159,-6.0489 -68.5042,-0.7994 -71.9294,-0.8852 -71.0353,-1.7793 0.2556,-0.2556 -0.1944,-1.4057 -1,-2.5559 -1.8701,-2.67 -1.8558,-5.7743 0.048,-10.3301 1.4786,-3.5386 15.4933,-26.16 18.2782,-29.503 0.7729,-0.9278 1.0667,-2.2349 0.6529,-2.9045 -0.452,-0.7313 -0.3352,-0.9596 0.2926,-0.5716 1.3475,0.8328 4.5679,-4.0359 3.651,-5.5197 -0.4251,-0.6877 -0.2466,-0.8484 0.4584,-0.4127 0.6841,0.4228 1.1545,0.078 1.1545,-0.8455 0,-0.8574 0.353,-1.559 0.7844,-1.559 0.9858,0 4.7116,-6.0811 4.7271,-7.7153 0.01,-0.6685 0.7348,-1.7935 1.619,-2.5 1.4971,-1.1965 9.8695,-13.1575 9.8695,-14.0999 0,-0.2338 2.9255,-4.8007 6.5011,-10.1486 3.5756,-5.348 6.2061,-10.201 5.8455,-10.7844 -0.3622,-0.586 -0.1858,-0.7704 0.3941,-0.4121 0.997,0.6162 2.7557,-1.9946 2.4181,-3.5897 -0.087,-0.4125 0.2468,-0.75 0.7424,-0.75 0.4957,0 1.7939,-1.4625 2.885,-3.25 1.0911,-1.7875 4.7237,-7.4745 8.0726,-12.6379 3.3488,-5.1633 5.8035,-9.8883 5.4547,-10.5 -0.3488,-0.6116 -0.2695,-0.7821 0.1761,-0.3789 0.8537,0.7726 18.8054,-25.8639 18.8296,-27.9392 0.01,-0.6633 0.3891,-0.9743 0.8475,-0.691 0.7598,0.4696 1.2462,-0.9883 0.9517,-2.853 -0.065,-0.4125 0.2976,-0.75 0.8061,-0.75 1.0256,0 12.7757,-18.1012 12.2359,-18.8495 -0.1868,-0.2589 0.3757,-0.871 1.25,-1.3603 0.8743,-0.4893 1.5896,-1.5422 1.5896,-2.3399 0,-0.7977 0.374,-1.4503 0.831,-1.4503 0.4571,0 1.4689,-1.2375 2.2484,-2.75 0.7796,-1.5125 1.6669,-2.975 1.9718,-3.25 0.3049,-0.275 1.5798,-2.1875 2.8331,-4.25 l 2.2788,-3.75 -20.3315,0.024 c -11.1824,0.014 -22.3566,0.49 -24.8316,1.0589 -6.5015,1.4944 -16.0726,5.9902 -15.3256,7.1989 0.3733,0.604 0.1412,0.7219 -0.5637,0.2862 -1.4964,-0.9248 -4.3185,1.2864 -3.4452,2.6994 0.3668,0.5934 0.1616,0.7434 -0.477,0.3487 -1.126,-0.6959 -3.0169,0.7425 -12.8569,9.7807 -4.8622,4.4662 -7.1512,7.814 -4.0816,5.9699 0.8597,-0.5165 0.8243,-0.2262 -0.1133,0.9299 -0.7498,0.9246 -1.691,1.4784 -2.0916,1.2309 -0.4005,-0.2475 -2.262,1.1649 -4.1366,3.1388 -2.2106,2.3276 -2.9692,3.749 -2.1585,4.0444 0.6875,0.2506 1.25,0.9232 1.25,1.4947 0,0.6273 -0.5944,0.5458 -1.5,-0.2058 -1.3888,-1.1526 -1.9438,-0.6913 -1.5936,1.3243 0.079,0.4534 -0.2757,0.5655 -0.7877,0.2491 -1.2405,-0.7667 -9.2719,8.8932 -8.3434,10.0352 0.3986,0.4903 0.3266,0.5683 -0.16,0.1734 -0.8082,-0.6559 -6.0296,4.9608 -6.8222,7.3387 -0.1849,0.5546 -2.1264,1.2415 -4.3146,1.5266 -3.4132,0.4446 -4.8511,-0.049 -10.1203,-3.4728 -4.8136,-3.128 -6.4354,-3.7405 -7.5,-2.8327 -1.1019,0.9396 -1.1325,0.8948 -0.1624,-0.2376 0.6577,-0.7677 0.9534,-2.608 0.6571,-4.0895 -0.3846,-1.9232 2.2401,-9.8192 9.1759,-27.6042 5.343,-13.7008 9.8052,-25.3605 9.9161,-25.9105 0.1108,-0.55 0.8798,-2.575 1.7089,-4.5 0.8291,-1.925 2.7522,-6.875 4.2736,-11 1.5214,-4.125 3.3976,-8.918 4.1694,-10.6511 0.7718,-1.7332 1.4032,-3.6457 1.4032,-4.25 0,-1.5211 0.8437,-1.4389 15.0016,1.4616 27.3055,5.5939 29.3251,5.7121 103.9984,6.0877 49.7429,0.2503 70.5837,0.6856 73.312,1.5313 2.8856,0.8944 4.1615,2.0179 5.25,4.6231 1.8886,4.5201 1.801,5.8406 -0.743,11.1974 -1.1754,2.475 -2.0441,5.0696 -1.9306,5.7658 0.1136,0.6962 -0.3773,1.1462 -1.0909,1 -0.7136,-0.1462 -1.185,0.2967 -1.0475,0.9842 0.1375,0.6875 -0.1561,1.25 -0.6524,1.25 -0.9503,0 -13.0976,18.4122 -13.0976,19.8527 0,0.4605 -0.9159,1.6662 -2.0353,2.6792 -1.1194,1.0131 -1.814,2.4184 -1.5436,3.123 0.2703,0.7046 -0.01,1.59 -0.6193,1.9676 -0.6726,0.4157 -0.8294,0.2311 -0.3973,-0.468 0.3924,-0.635 0.5129,-1.1545 0.2677,-1.1545 -0.7758,0 -16.1839,24.4076 -15.9222,25.222 0.1375,0.4279 -0.1385,0.778 -0.6134,0.778 -1.0521,0 -15.1366,21.1316 -15.1366,22.71 0,0.6179 -0.372,1.2733 -0.8266,1.4567 -1.6775,0.6764 -9.1668,13.0349 -8.5268,14.0705 0.3814,0.6172 0.194,0.7823 -0.4419,0.3893 -0.6108,-0.3775 -1.647,0.3355 -2.3187,1.5955 -0.6679,1.2529 -3.9066,6.328 -7.1972,11.278 -3.2905,4.95 -5.9916,9.5625 -6.0024,10.25 -0.011,0.6875 -0.2272,1.0426 -0.4807,0.789 -0.848,-0.8479 -16.2556,23.5712 -15.5713,24.6785 0.371,0.6003 0.2208,0.8111 -0.3338,0.4683 -0.5546,-0.3428 -3.4065,3.0752 -6.3375,7.5955 -2.9311,4.5203 -7.9532,12.1978 -11.1604,17.0611 -3.2072,4.8633 -6.31,9.7369 -6.8951,10.8302 -1.0503,1.9626 -0.7624,1.9828 22.7643,1.6045 22.1747,-0.3567 24.2581,-0.5482 30.0256,-2.7607 3.4086,-1.3076 5.9265,-2.8157 5.5955,-3.3514 -0.334,-0.5403 -0.086,-0.6551 0.5567,-0.2579 1.4966,0.925 9.2642,-3.4139 8.4551,-4.7229 -0.346,-0.5599 -0.1071,-0.6801 0.5475,-0.2755 1.7327,1.0709 7.5814,-3.375 6.2247,-4.7317 -0.5923,-0.5923 -1.077,-1.523 -1.077,-2.0681 0,-0.5452 0.6305,-0.1289 1.4011,0.925 1.3343,1.8247 1.7517,1.6252 8.75,-4.1816 4.0419,-3.3537 7.2364,-6.605 7.0989,-7.225 -0.1375,-0.62 0.1666,-1.0148 0.6759,-0.8773 0.5092,0.1375 2.724,-1.6625 4.9218,-4 2.1977,-2.3375 4.2306,-4.25 4.5175,-4.25 0.7894,0 11.062,-11.0086 11.6348,-12.4684 0.7075,-1.8029 6.0994,-6.1327 8.6179,-6.9202 1.1649,-0.3643 3.4149,-0.1351 5,0.5094 1.5852,0.6445 3.7426,1.2184 4.7944,1.2755 1.0517,0.057 2.0985,0.7787 2.3261,1.6037 0.3616,1.3106 0.2849,1.3143 -0.6079,0.029 -0.562,-0.8091 -1.271,-1.2218 -1.5757,-0.9171 -0.3047,0.3047 1.2458,2.0004 3.4456,3.7682 3.0135,2.4217 3.9996,3.9316 3.9996,6.1242 0,1.744 -6.0092,14.9892 -14.9963,33.0544 -8.2479,16.5794 -14.7034,30.6182 -14.3455,31.1973 0.358,0.5792 0.213,0.7824 -0.3221,0.4517 -0.535,-0.3306 -1.529,0.9369 -2.2088,2.8168 -1.9752,5.4622 -6.1953,12.4811 -7.4628,12.4121 -0.6405,-0.035 -2.1024,-0.4427 -3.2486,-0.9064 z"
     id="path4453"
     inkscape:connector-curvature="0" />
  <path
     style="fill:none;stroke:#000000;stroke-opacity:1"
     d="m -1704.1668,1469.1187 c -6.7542,-1.4102 -9.9092,-5.2593 -15.2884,-18.6519 -1.3798,-3.4354 -2.8792,-5.9104 -3.3319,-5.5 -0.4528,0.4104 -0.529,0.2315 -0.1695,-0.3976 0.5806,-1.0158 -0.578,-4.7922 -3.3305,-10.8562 -0.4993,-1.1 -4.0937,-9.875 -7.9875,-19.5 -3.8937,-9.625 -7.5015,-18.4 -8.0171,-19.5 -0.5157,-1.1 -2.3228,-5.6 -4.0158,-10 -1.693,-4.4 -3.6792,-9.35 -4.4137,-11 -0.7345,-1.65 -4.4019,-10.425 -8.1497,-19.5 -3.7478,-9.075 -7.1753,-16.65 -7.6165,-16.8333 -0.4412,-0.1834 -0.8022,-1.1616 -0.8022,-2.1738 0,-1.0123 -2.4881,-7.8373 -5.5291,-15.1667 -3.041,-7.3294 -7.2819,-17.6012 -9.4242,-22.8262 -16.0971,-39.259 -15.9035,-39 -29.1573,-39 -5.0162,0 -6.3761,-0.3957 -8.4349,-2.4545 -2.2766,-2.2767 -2.4545,-3.1747 -2.4545,-12.3893 0,-11.4488 1.3069,-14.2869 6.5,-14.1153 1.65,0.054 28.576,0.1832 59.8357,0.286 54.9219,0.1808 56.8833,0.2522 58.25,2.1212 1.745,2.3865 1.9602,19.2595 0.2924,22.9201 -1.2831,2.816 -3.4512,3.5988 -10.0212,3.6181 -2.9926,0.01 -4.8293,0.4994 -5.1673,1.3802 -0.2884,0.7515 0.7165,5.139 2.2332,9.75 1.5167,4.6109 7.2002,21.9634 12.6301,38.5611 5.4298,16.5977 10.2962,29.9156 10.8142,29.5955 0.518,-0.3202 0.6292,-0.076 0.2472,0.542 -0.3821,0.6182 1.1999,7.0787 3.5156,14.3566 3.7149,11.6754 4.3289,12.944 5.2172,10.7805 0.5537,-1.3487 1.8271,-4.34 2.8298,-6.6473 1.0027,-2.3074 1.8231,-4.8049 1.8231,-5.55 0,-0.7452 0.3898,-1.7824 0.8664,-2.3049 1.7183,-1.8841 10.1681,-25.585 9.5044,-26.6589 -0.3739,-0.6051 -0.2311,-0.8228 0.3173,-0.4838 0.8226,0.5084 7.05,-13.7667 7.7183,-17.6929 0.1044,-0.6129 0.7034,-2.0465 1.3312,-3.1856 0.6277,-1.1392 2.1202,-4.8997 3.3166,-8.3566 2.3703,-6.8495 2.2165,-11.7749 -0.6815,-21.8215 -1.7388,-6.0278 -3.8697,-8.6155 -6.5232,-7.9216 -1.0188,0.2664 -1.6313,0.1269 -1.3613,-0.3101 0.2701,-0.437 -2.6213,-0.9703 -6.4252,-1.1853 -10.1957,-0.5761 -11.063,-1.6578 -11.063,-13.7976 0,-6.7525 0.4259,-10.2364 1.4173,-11.5921 0.8719,-1.1925 1.0704,-2.3563 0.5158,-3.0245 -0.5776,-0.696 -0.3841,-1.0862 0.5387,-1.0862 0.7921,0 1.2532,0.3026 1.0246,0.6724 -0.2286,0.3699 25.1037,0.748 56.294,0.8404 31.1903,0.092 57.2237,0.2398 57.8521,0.3276 0.7719,0.1078 1.1912,3.9225 1.2926,11.7587 0.1297,10.0298 -0.1001,11.8675 -1.6986,13.5833 -1.0168,1.0914 -1.9734,2.4343 -2.1259,2.9843 -0.1525,0.55 -0.537,1.225 -0.8543,1.5 -0.3173,0.275 -0.2533,-0.062 0.1423,-0.75 0.5418,-0.9414 -0.7716,-1.25 -5.3206,-1.25 -5.6541,0 -6.0812,0.1643 -6.6856,2.5727 -0.436,1.7371 0.5009,5.7157 2.8846,12.25 1.9418,5.3225 4.1142,11.3648 4.8276,13.4273 0.7134,2.0625 1.6288,3.75 2.0341,3.75 0.4053,0 0.688,0.7875 0.6282,1.75 -0.11,1.7714 4.153,14.3285 5.1773,15.25 0.3057,0.275 0.6288,1.175 0.718,2 0.293,2.7084 8.7803,25.8445 9.3515,25.4915 0.3067,-0.1896 0.5684,0.4098 0.5816,1.3319 0.033,2.3382 6.7231,21.1766 7.5202,21.1766 0.3581,0 0.882,-0.7875 1.164,-1.75 0.2821,-0.9625 2.8498,-8.275 5.7061,-16.25 2.8563,-7.975 7.3867,-20.8 10.0676,-28.5 2.681,-7.7 5.8017,-16.475 6.935,-19.5 2.0997,-5.6043 6.0118,-19.9047 6.0118,-21.9756 0,-0.6478 -0.5413,-0.8173 -1.25,-0.3915 -0.9952,0.5979 -0.9944,0.4352 0,-0.7978 1.3748,-1.6985 0.8096,-6.364 -1.0809,-8.9218 -2.1325,-2.8851 -5.4569,-3.9133 -12.6525,-3.9133 -6.2168,0 -7.4199,-0.3087 -9.5657,-2.4545 -2.2559,-2.2559 -2.4546,-3.211 -2.4546,-11.8007 0,-5.1403 0.5202,-10.4483 1.1559,-11.7954 l 1.1559,-2.4494 48.0941,0.1223 c 26.4518,0.067 48.8502,0.4408 49.7742,0.8302 2.4143,1.0171 3.8199,5.8852 3.8199,13.2288 0,5.1996 -1.875,13.052 -3.1989,13.3972 -0.1656,0.043 -4.3511,0.4199 -9.3011,0.8372 -10.1551,0.856 -17.1904,3.5453 -16.7025,6.3847 0.1636,0.9522 -0.1793,1.6116 -0.762,1.4654 -0.944,-0.2368 -6.2565,11.6588 -21.9875,49.2342 -2.648,6.325 -6.5088,15.55 -8.5796,20.5 -2.0709,4.95 -4.7659,11.25 -5.9891,14 -1.2231,2.75 -3.43,8.15 -4.9042,12 -1.4742,3.85 -3.0821,7.9 -3.5731,9 -2.4985,5.5973 -5.2812,12.1622 -9.9608,23.5 -2.8377,6.875 -5.7584,13.85 -6.4905,15.5 -0.732,1.65 -3.6801,8.625 -6.5511,15.5 -2.871,6.875 -6.5205,15.5006 -8.1099,19.1679 -1.6068,3.7072 -2.626,7.4814 -2.2955,8.5 0.4414,1.3603 0.3465,1.4854 -0.3684,0.4857 -0.733,-1.0248 -1.2303,-0.5795 -2.0824,1.8649 -0.6157,1.7662 -0.8303,3.6791 -0.4769,4.2509 0.3728,0.6031 0.1578,0.74 -0.512,0.3261 -0.6349,-0.3924 -1.1545,-0.2525 -1.1545,0.311 0,1.6525 -5.7339,7.0418 -8.6865,8.1644 -3.0318,1.1527 -14.4142,0.9011 -13.6705,-0.3022 0.2613,-0.4228 0,-0.7687 -0.5777,-0.7687 -0.579,0 -2.3645,-1.8108 -3.9677,-4.024 -1.6032,-2.2132 -3.1073,-3.6757 -3.3424,-3.25 -0.235,0.4257 -0.2999,0.2367 -0.1442,-0.42 0.1558,-0.6567 -1.7154,-6.2817 -4.1582,-12.5 -2.4428,-6.2183 -5.3914,-13.781 -6.5524,-16.806 -1.161,-3.025 -2.889,-7.3 -3.84,-9.5 -0.951,-2.2 -2.7562,-6.8065 -4.0117,-10.2367 -1.3336,-3.6438 -2.714,-5.9702 -3.3201,-5.5955 -0.5925,0.3661 -0.7385,0.1572 -0.3404,-0.4869 0.5887,-0.9526 -7.5666,-23.9225 -11.9581,-33.6809 -1.2672,-2.816 -9.3931,-23.596 -15.1685,-38.7903 -1.4196,-3.7346 -2.8681,-6.4346 -3.2189,-6 -0.3508,0.4347 -2.723,5.7403 -5.2715,11.7903 -2.5486,6.05 -8.0397,19.0145 -12.2025,28.81 -4.1628,9.7955 -7.5687,17.9752 -7.5687,18.177 0,0.2018 -1.6392,3.8873 -3.6426,8.19 -2.0035,4.3026 -3.6535,9.0782 -3.6667,10.6123 -0.017,1.9694 -0.2945,2.4103 -0.9441,1.5 -0.6333,-0.8874 -0.7662,-0.5875 -0.4266,0.9621 0.2714,1.2382 0.1782,2.0565 -0.2072,1.8183 -0.3853,-0.2381 -2.9007,4.8237 -5.5898,11.2486 -2.689,6.425 -5.9017,13.9317 -7.1394,16.6817 -4.4134,9.8064 -8.2864,19.5 -7.791,19.5 0.8105,0 -5.1823,8.3508 -7.2262,10.0695 -3.2832,2.7608 -9.6127,4.5943 -13.2436,3.8362 z"
     id="path4451"
     inkscape:connector-curvature="0" />
  <path
     style="fill:none;stroke:#000000;stroke-opacity:1"
     d="m -2021.7896,1468.213 c -0.34,-0.55 -0.2968,-1 0.096,-1 0.3927,0 -0.091,-0.8894 -1.0747,-1.9764 -0.9837,-1.087 -2.248,-1.6925 -2.8095,-1.3455 -0.5614,0.347 -0.7235,0.1498 -0.3601,-0.4382 0.3634,-0.588 0.3204,-1.22 -0.096,-1.4045 -1.4871,-0.6595 -5.0052,-6.503 -10.2589,-17.0394 -2.9355,-5.8871 -5.7803,-10.4301 -6.3218,-10.0955 -0.5458,0.3374 -0.6697,0.099 -0.2781,-0.5345 0.3885,-0.6286 -0.2894,-3.2856 -1.5064,-5.9045 -1.2171,-2.6188 -2.2756,-4.9865 -2.3523,-5.2615 -0.1621,-0.5815 -3.1291,-7.0155 -8.7618,-19 -2.1972,-4.675 -5.1247,-10.975 -6.5055,-14 -1.3809,-3.025 -4.0165,-8.7395 -5.8569,-12.699 -1.8404,-3.9594 -4.5365,-10.0344 -5.9914,-13.5 -1.4548,-3.4655 -3.3638,-7.651 -4.2422,-9.301 -0.8784,-1.65 -1.6548,-3.225 -1.7254,-3.5 -0.2162,-0.8427 -1.6663,-4.241 -4.2671,-10 -1.3662,-3.025 -2.6349,-6.257 -2.8196,-7.1823 -0.3376,-1.6922 -9.4987,-23.0063 -13.8906,-32.3177 -2.3761,-5.0378 -4.6901,-10.7813 -4.5351,-11.2568 0.046,-0.1412 -1.1374,-2.6162 -2.6298,-5.5 -1.4924,-2.8838 -2.6234,-5.5807 -2.5134,-5.9932 0.11,-0.4125 -0.2499,-0.75 -0.7999,-0.75 -0.55,0 -1.0048,-0.7875 -1.0106,-1.75 -0.015,-2.5581 -8.1801,-13.0155 -12.4017,-15.8842 -3.1631,-2.1493 -4.6329,-2.4471 -11.3604,-2.3017 -12.882,0.2786 -13.6611,-0.6123 -13.6117,-15.5641 0.03,-9.0827 0.4747,-12.5622 1.5228,-11.9144 0.3979,0.2459 0.9365,0.1022 1.1969,-0.3193 0.3934,-0.6365 138.1215,-0.8678 139.6647,-0.2346 0.275,0.1128 0.7625,0.1769 1.0833,0.1423 0.9482,-0.1022 1.163,2.2674 1.163,12.826 0,5.5 -0.1304,10.6515 -0.2898,11.4477 -0.4305,2.1503 -4.5867,3.3908 -12.6331,3.7706 -5.1238,0.2419 -7.7401,0.8488 -9.1469,2.1219 -1.8692,1.6916 -1.8967,2.099 -0.5355,7.9341 2.3247,9.9651 8.5201,27.7441 9.4645,27.1605 0.4794,-0.2963 0.627,0.099 0.328,0.8777 -0.5685,1.4815 6.876,22.9603 11.2978,32.5963 1.4112,3.0751 2.6978,6.247 2.8592,7.0484 0.1613,0.8015 0.7331,2.3765 1.2707,3.5 0.5375,1.1236 3.6657,8.9813 6.9515,17.4617 l 5.9742,15.4188 2.6238,-5.7363 c 1.4431,-3.155 2.3645,-6.156 2.0475,-6.6689 -0.3169,-0.5129 -0.13,-0.9325 0.4154,-0.9325 1.057,0 2.6911,-3.8901 2.2717,-5.4084 -0.138,-0.4996 0.1281,-1.1746 0.5913,-1.5 1.5703,-1.103 14.2634,-31.9845 14.2634,-34.7017 0,-0.6728 0.3838,-1.3732 0.8529,-1.5566 0.4691,-0.1833 1.7849,-2.8083 2.924,-5.8333 1.1391,-3.025 4.8053,-12.4419 8.1471,-20.9264 3.4793,-8.8338 6.076,-16.9753 6.076,-19.0506 0,-4.2613 -1.9729,-9.0041 -3.75,-9.0152 -0.6875,0 -1.25,-0.422 -1.25,-0.9283 0,-1.1837 -3.967,-1.9602 -11.4412,-2.2396 -8.4866,-0.3173 -9.1118,-1.2047 -9.424,-13.3771 -0.2287,-8.9145 -0.022,-10.3363 1.8458,-12.711 l 2.1032,-2.6738 38.2081,0.5279 c 21.0144,0.2904 44.3647,0.1603 51.8894,-0.289 13.5685,-0.8102 18.0458,-0.2447 18.536,2.3408 0.1196,0.6306 0.2809,5.9632 0.3584,11.8503 0.1848,14.0282 0.3979,13.8193 -14.8589,14.5635 -16.8088,0.8198 -21.7966,3.4932 -27.8596,14.9327 -1.0215,1.9273 -2.7965,4.8523 -3.9445,6.5 -1.8426,2.6447 -3.5695,6.0262 -3.8279,7.4958 -0.048,0.275 -1.0335,1.85 -2.1892,3.5 -2.6713,3.8139 -7.47,13.4055 -7.9682,15.9265 -0.2093,1.0596 -0.7662,2.1846 -1.2375,2.5 -1.2811,0.8574 -7.2763,13.0711 -6.4247,13.0888 0.4041,0.01 0.2291,0.3459 -0.389,0.75 -1.4613,0.9554 -6.7714,11.6188 -19.2885,38.7347 -5.5856,12.1 -11.1324,23.8 -12.3262,26 -1.1938,2.2 -2.0924,4.106 -1.9969,4.2355 0.096,0.1295 -2.2876,5.4732 -5.2956,11.875 -3.008,6.4017 -5.469,11.7799 -5.469,11.9515 0,0.1716 -2.6321,5.8528 -5.8491,12.625 -10.5509,22.2109 -12.3319,26.1713 -13.1819,29.313 -0.1488,0.55 -0.9902,1.5482 -1.8698,2.2182 -0.8796,0.67 -1.2184,1.2325 -0.7529,1.25 1.2963,0.049 -6.1275,6.3534 -8.1063,6.8843 -3.0694,0.8235 -12.6766,0.6291 -14.6541,-0.2965 -1.3774,-0.6447 -1.7113,-0.5679 -1.191,0.2741 0.3977,0.6434 0.4981,1.1699 0.2231,1.1699 -0.275,0 -0.7781,-0.45 -1.118,-1 z"
     id="path4449"
     inkscape:connector-curvature="0" />
  <path
     style="fill:none;stroke:#000000;stroke-opacity:1"
     d="m -1390.519,1461.769 c -1.4461,-0.7502 -2.9236,-1.0697 -3.2833,-0.71 -0.3597,0.3597 -0.504,0.1233 -0.3207,-0.5254 0.1834,-0.6487 -0.5666,-1.9196 -1.6666,-2.8242 -1.1,-0.9046 -1.4676,-1.3784 -0.8168,-1.0528 0.8582,0.4293 1.3142,-2.2277 1.6603,-9.6759 0.2624,-5.6472 0.5925,-10.7338 0.7335,-11.3034 0.299,-1.2085 0.6845,-1.2685 12.0565,-1.8777 5.0479,-0.2704 10.2393,-1.1775 12.5,-2.1841 4.2193,-1.8788 4.8226,-2.0911 6.4734,-2.2775 0.6089,-0.069 0.8236,-0.8636 0.4772,-1.7664 -0.5055,-1.3173 -0.3527,-1.4114 0.7736,-0.4767 1.1152,0.9256 2.4368,0.3481 6.4335,-2.8111 4.8158,-3.8067 12.692,-12.39 12.7241,-13.8665 0.031,-1.442 1.6522,-3.2188 2.4733,-2.7113 1.0886,0.6728 7.093,-6.5519 6.3903,-7.6889 -0.2902,-0.4695 -0.098,-0.73 0.4274,-0.5789 1.2833,0.3693 9.3051,-8.7788 9.6282,-10.98 0.1408,-0.9598 0.784,-1.7452 1.4293,-1.7452 0.6452,0 3.8418,-3.3566 7.1036,-7.4591 4.9048,-6.169 5.7231,-7.7255 4.7315,-9 -1.0272,-1.3202 -0.969,-1.3615 0.4064,-0.2885 1.3814,1.0777 2.3307,0.3107 6.8075,-5.5 3.9138,-5.0801 5.0875,-7.3668 4.7392,-9.2334 -0.4389,-2.3518 -0.3898,-2.3809 0.9425,-0.5589 2.601,3.5571 1.4253,0.083 -1.4266,-4.2157 -1.5529,-2.3406 -3.1981,-3.9156 -3.656,-3.5 -0.4579,0.4156 -0.5735,0.2976 -0.2568,-0.2622 0.7547,-1.334 -3.7011,-8.7029 -4.6741,-7.7299 -0.4112,0.4112 -0.5977,0.2329 -0.4144,-0.3964 0.4667,-1.6016 -9.189,-16.4601 -10.2645,-15.7954 -0.4836,0.2989 -0.6241,-0.1215 -0.3123,-0.9341 0.3452,-0.8995 -0.4384,-2.1363 -2.0028,-3.1613 -1.4134,-0.9261 -2.3397,-2.0564 -2.0583,-2.5116 0.7311,-1.183 -13.5036,-21.0871 -14.5973,-20.4111 -0.4997,0.3088 -0.6122,-0.2107 -0.2501,-1.1545 0.4822,-1.2564 0.3038,-1.4968 -0.6659,-0.8974 -0.8031,0.4963 -1.0834,0.4285 -0.7122,-0.1722 0.7626,-1.2339 -8.8884,-14.8015 -10.573,-14.8638 -0.6767,-0.025 -1.1029,-0.6319 -0.9473,-1.3486 0.1555,-0.7168 -2.269,-4.4616 -5.3878,-8.3218 -7.1925,-8.902 -10.6942,-10.5536 -23.1209,-10.905 -5.0741,-0.1435 -9.0275,-0.4591 -8.7853,-0.7014 0.2422,-0.2422 -0.2187,-1.3814 -1.0243,-2.5316 -1.7731,-2.5315 -2.1055,-21.132 -0.3965,-22.1882 0.5875,-0.3631 0.8322,-1.2753 0.5437,-2.027 -0.2885,-0.7518 -0.025,-1.6758 0.5863,-2.0534 0.611,-0.3776 0.8416,-0.2508 0.5124,0.2818 -0.3837,0.6209 21.1829,0.931 60.0955,0.8642 51.5641,-0.088 60.9572,0.1133 62.444,1.3412 1.4674,1.2119 1.75,3.1716 1.75,12.1353 0,12.0271 -0.9624,14 -6.8288,14 -1.7442,0 -3.1712,0.45 -3.1712,1 0,0.55 0.5625,1.0069 1.25,1.0153 0.9676,0.012 0.9761,0.1893 0.038,0.7858 -0.6799,0.432 -0.9594,1.7382 -0.6364,2.9734 0.3169,1.2117 1.0445,1.9135 1.617,1.5597 0.6266,-0.3873 0.7386,-0.1544 0.2815,0.5853 -0.4498,0.7278 0.2006,2.2503 1.5955,3.7351 1.2951,1.3786 2.2132,2.5828 2.0402,2.676 -0.173,0.093 -0.013,0.9543 0.3548,1.9137 0.3681,0.9593 1.1417,1.4523 1.719,1.0954 0.6125,-0.3784 0.753,-0.1685 0.3373,0.504 -0.8783,1.4212 1.7669,5.4298 2.9035,4.3999 0.4513,-0.409 0.5172,-0.214 0.1464,0.4333 -0.8453,1.4757 5.7345,12.5808 6.8535,11.5669 0.4514,-0.4091 0.5377,-0.2471 0.1918,0.3599 -0.828,1.453 5.2027,10.931 6.2241,9.7822 4.1749,-4.6956 12.0062,-16.703 11.4651,-17.5786 -0.3797,-0.6144 -0.2423,-0.8397 0.3055,-0.5011 0.5475,0.3384 1.9671,-0.6988 3.1545,-2.305 2.4381,-3.2976 2.7485,-4.4584 0.9091,-3.3999 -0.7263,0.4179 -0.9009,0.3379 -0.4167,-0.191 0.4583,-0.5007 1.2458,-0.9103 1.75,-0.9103 0.5042,0 0.8764,-0.4095 0.8271,-0.9101 -0.049,-0.5006 0.6114,-1.3024 1.4682,-1.7819 2.1677,-1.2131 4.731,-6.9581 4.8417,-10.8516 0.1251,-4.3986 -2.2958,-5.9564 -9.2565,-5.9564 -8.0949,0 -9.2544,-1.5731 -9.9322,-13.4759 -0.2924,-5.1347 -0.1941,-9.1266 0.2184,-8.8709 1.2305,0.7627 0.8493,-1.1532 -0.5,-2.5124 -1.0028,-1.0102 -0.8696,-1.1143 0.6736,-0.5264 1.4305,0.545 1.7835,0.3679 1.3773,-0.6908 -0.4681,-1.2197 6.2584,-1.4143 46.9675,-1.3585 l 47.5137,0.065 1.8589,2.2957 c 1.5274,1.8863 1.859,4.0319 1.859,12.03 0,12.9195 -0.4285,13.3333 -14.6305,14.1262 -8.7564,0.4888 -10.922,0.9504 -13.5393,2.8854 -1.7136,1.267 -2.7589,1.6801 -2.3228,0.9181 0.4361,-0.762 -0.8321,0.1483 -2.8183,2.023 -1.9862,1.8746 -3.3343,3.8566 -2.9957,4.4045 0.3386,0.5478 0.1718,0.7217 -0.3707,0.3864 -1.0395,-0.6424 -11.0026,8.8647 -10.5727,10.0888 0.1375,0.3915 -0.098,0.7118 -0.5235,0.7118 -1.7789,0 -5.4061,4.4041 -4.6725,5.6734 0.4217,0.7296 0.3904,0.985 -0.069,0.5675 -1.1415,-1.0364 -5.5802,3.2737 -4.7934,4.6545 0.3462,0.6075 0.2564,0.7661 -0.1996,0.3524 -0.9975,-0.9048 -4.4915,2.0515 -4.4915,3.8002 0,0.6809 -0.6044,1.4699 -1.343,1.7534 -1.693,0.6496 -16.657,19.1802 -16.657,20.627 0,0.5894 -0.3654,1.0716 -0.812,1.0716 -0.4465,0 -1.8575,1.4142 -3.1354,3.1427 -1.278,1.7286 -1.8437,2.8462 -1.2572,2.4837 0.5865,-0.3624 1.392,-0.1322 1.79,0.5118 0.4435,0.7176 0.2908,0.9033 -0.3944,0.4798 -0.615,-0.38 -2.0648,0.2558 -3.2219,1.4129 l -2.1038,2.1038 2.7166,3.6826 c 1.4941,2.0255 3.4317,4.2608 4.3058,4.9674 0.8741,0.7065 1.5945,1.8315 1.6008,2.5 0.014,1.5243 16.1875,25.7698 18.3209,27.4653 0.865,0.6875 1.2554,1.25 0.8675,1.25 -0.3879,0 0.4859,1.8 1.9418,4 1.4559,2.2 3.0372,4 3.5142,4 0.4769,0 0.7546,0.3582 0.6171,0.796 -0.4656,1.4822 10.4745,17.1833 11.5218,16.536 0.6008,-0.3713 0.737,-0.1552 0.3237,0.5135 -0.3924,0.635 -0.162,1.1545 0.5121,1.1545 0.6742,0 0.9408,0.2849 0.5926,0.6332 -0.9636,0.9636 5.4471,9.3938 6.6011,8.6806 0.5906,-0.365 0.6962,-0.1188 0.2552,0.5947 -0.8215,1.3293 2.2263,5.3438 3.4724,4.5737 0.4188,-0.2589 1.0285,0.2251 1.3549,1.0755 0.3898,1.016 0.1921,1.2982 -0.5767,0.8231 -0.6435,-0.3977 0.09,0.9289 1.6302,2.9481 1.54,2.0191 3.2108,3.6711 3.7128,3.6711 0.502,0 1.2066,0.7875 1.5659,1.75 0.9092,2.4355 6.1061,7.8545 10.284,10.7234 2.6959,1.8513 5.0129,2.4546 10.0854,2.6258 3.6219,0.1223 7.179,-0.1446 7.9045,-0.5929 0.8447,-0.5221 1.0785,-0.426 0.6501,0.2672 -0.368,0.5954 0.1891,1.3549 1.2379,1.6878 3.1267,0.9923 4.3626,5.6807 3.9764,15.0842 -0.3288,8.0069 -0.5563,8.8014 -3.1616,11.0424 -2.714,2.3345 -3.1454,2.3901 -12.9999,1.674 -11.6083,-0.8435 -72.8068,-1.0123 -94.9406,-0.2619 l -14.7477,0.5 -2.7523,-2.9059 c -2.6871,-2.8372 -2.7404,-3.1248 -2.2523,-12.1493 0.579,-10.7032 1.8294,-12.8421 8.0931,-13.8437 2.2318,-0.3569 3.733,-1.0734 3.395,-1.6204 -0.3334,-0.5394 -0.1296,-0.9807 0.4529,-0.9807 0.5825,0 1.059,-0.675 1.059,-1.5 0,-0.825 -0.4765,-1.5 -1.059,-1.5 -0.5825,0 -0.7974,-0.4233 -0.4776,-0.9408 0.8471,-1.3705 -11.5115,-21.1475 -12.7404,-20.388 -0.601,0.3714 -0.7296,0.1486 -0.308,-0.5336 0.5331,-0.8625 -9.1738,-18.6621 -13.1235,-24.0646 -0.6043,-0.8266 -3.107,3.4165 -2.5483,4.3205 0.3112,0.5035 0.1179,0.6387 -0.4296,0.3003 -1.0533,-0.651 -5.3794,4.5486 -5.721,6.8761 -0.1107,0.7547 -0.5865,1.7227 -1.0573,2.1512 -0.4708,0.4284 -0.5322,0.2164 -0.1366,-0.4711 0.3956,-0.6875 0.5304,-1.25 0.2994,-1.25 -0.231,0 -2.2974,2.7357 -4.592,6.0794 -2.2945,3.3436 -3.5946,5.7852 -2.889,5.4258 0.7056,-0.3594 0.5914,-0.058 -0.2538,0.6706 -2.0579,1.7733 -5.7677,7.1213 -6.1534,8.8706 -0.1704,0.7733 -0.8765,2.0155 -1.5691,2.7604 -0.6925,0.7449 -0.9579,1.8807 -0.5897,2.5238 0.3683,0.6432 0.2965,0.8309 -0.1595,0.4173 -1.0812,-0.9807 -5.6887,7.1242 -4.8351,8.5053 0.3825,0.6189 0.1748,0.7606 -0.502,0.3423 -0.6767,-0.4182 -1.1545,-0.093 -1.1545,0.7865 0,2.245 1.3253,2.7022 9.15,3.1564 10.3611,0.6015 10.8501,1.2531 10.8501,14.4616 0,14.6906 0.027,14.6679 -16.8589,14 -18.5002,-0.7317 -59.161,-0.6101 -70.1912,0.2101 -7.2475,0.5389 -10.1839,0.3812 -12.1793,-0.6541 z"
     id="path4447"
     inkscape:connector-curvature="0" />
  <path
     style="fill:none;stroke:#000000;stroke-opacity:1"
     d="m -817.72533,1445.9199 c 0.3755,-0.9862 0.9347,-1.5412 1.2426,-1.2334 0.3079,0.3079 6e-4,1.1148 -0.6828,1.7932 -0.9876,0.9802 -1.1025,0.8654 -0.5598,-0.5598 z"
     id="path4445"
     inkscape:connector-curvature="0" />
  <path
     style="fill:none;stroke:#000000;stroke-opacity:1"
     d="m -1265.7254,1437.9199 c 0.3756,-0.9862 0.9347,-1.5412 1.2426,-1.2334 0.3079,0.3079 7e-4,1.1148 -0.6828,1.7932 -0.9876,0.9802 -1.1024,0.8654 -0.5598,-0.5598 z"
     id="path4443"
     inkscape:connector-curvature="0" />
  <path
     style="fill:none;stroke:#000000;stroke-opacity:1"
     d="m -697.67653,1406.03 c 0.2888,-0.4673 0.944,-0.5907 1.456,-0.2743 1.3084,0.8086 1.1611,1.124 -0.5251,1.124 -0.8008,0 -1.2197,-0.3824 -0.9309,-0.8497 z"
     id="path4441"
     inkscape:connector-curvature="0" />
  <path
     style="fill:none;stroke:#000000;stroke-opacity:1"
     d="m -1179.2896,1402.213 c -0.9013,-0.5825 -1.0246,-0.9755 -0.309,-0.9847 0.655,-0.01 1.4691,0.4347 1.809,0.9847 0.7673,1.2415 0.4211,1.2415 -1.5,0 z"
     id="path4439"
     inkscape:connector-curvature="0" />
  <path
     style="fill:none;stroke:#000000;stroke-opacity:1"
     d="m -1314.6866,1374.3797 c -0.2833,-0.4584 0.1203,-0.8334 0.897,-0.8334 0.7766,0 1.1802,0.375 0.8969,0.8334 -0.2832,0.4583 -0.6869,0.8333 -0.8969,0.8333 -0.2101,0 -0.6138,-0.375 -0.897,-0.8333 z"
     id="path4437"
     inkscape:connector-curvature="0" />
  <path
     style="fill:none;stroke:#000000;stroke-opacity:1"
     d="m -2074.9563,1366.757 c 0,-0.8008 0.3823,-1.2197 0.8496,-0.9309 0.4673,0.2888 0.5908,0.944 0.2743,1.456 -0.8086,1.3084 -1.1239,1.1611 -1.1239,-0.5251 z"
     id="path4435"
     inkscape:connector-curvature="0" />
  <path
     style="fill:none;stroke:#000000;stroke-opacity:1"
     d="m -1303.7896,1362.213 c 0.9954,-1.1 2.0349,-2 2.3099,-2 0.275,0 -0.3145,0.9 -1.3099,2 -0.9955,1.1 -2.035,2 -2.31,2 -0.275,0 0.3145,-0.9 1.31,-2 z"
     id="path4433"
     inkscape:connector-curvature="0" />
  <path
     style="fill:none;stroke:#000000;stroke-opacity:1"
     d="m -1306.6766,1344.03 c 0.2889,-0.4673 0.9441,-0.5907 1.4561,-0.2743 1.3083,0.8086 1.161,1.124 -0.5252,1.124 -0.8008,0 -1.2197,-0.3824 -0.9309,-0.8497 z"
     id="path4431"
     inkscape:connector-curvature="0" />
  <path
     style="fill:none;stroke:#000000;stroke-opacity:1"
     d="m -1329.2158,1309.802 c -0.9022,-1.0871 -0.8729,-1.583 0.1276,-2.1603 0.7142,-0.4121 0.965,-0.3811 0.5572,0.069 -0.4077,0.45 -0.2401,1.4222 0.3725,2.1603 0.6125,0.7381 0.8887,1.342 0.6137,1.342 -0.275,0 -1.0269,-0.6349 -1.671,-1.411 z"
     id="path4429"
     inkscape:connector-curvature="0" />
  <path
     style="fill:none;stroke:#000000;stroke-opacity:1"
     d="m -631.72533,1304.5061 c -0.5427,-1.4252 -0.4278,-1.54 0.5598,-0.5598 0.6834,0.6784 0.9907,1.4853 0.6828,1.7932 -0.3079,0.3078 -0.8671,-0.2472 -1.2426,-1.2334 z"
     id="path4427"
     inkscape:connector-curvature="0" />
  <path
     style="fill:none;stroke:#000000;stroke-opacity:1"
     d="m -1962.8308,1299.1465 c -0.3625,-0.5866 -0.4446,-1.281 -0.1825,-1.5432 0.2621,-0.2621 0.743,0.2179 1.0687,1.0666 0.6762,1.7621 0.1,2.072 -0.8862,0.4766 z"
     id="path4425"
     inkscape:connector-curvature="0" />
  <path
     style="fill:none;stroke:#000000;stroke-opacity:1"
     d="m -1360.4172,1266.463 c -1.2439,-1.5861 -1.2085,-1.6214 0.3776,-0.3776 0.9625,0.7549 1.75,1.5424 1.75,1.75 0,0.8231 -0.8212,0.2933 -2.1276,-1.3724 z"
     id="path4423"
     inkscape:connector-curvature="0" />
  <path
     style="fill:none;stroke:#000000;stroke-opacity:1"
     d="m -2023.2896,1261.213 c 0,-0.55 0.45,-1 1,-1 0.55,0 1,0.45 1,1 0,0.55 -0.45,1 -1,1 -0.55,0 -1,-0.45 -1,-1 z"
     id="path4421"
     inkscape:connector-curvature="0" />
  <path
     style="fill:none;stroke:#000000;stroke-opacity:1"
     d="m -1538.2107,1255.6297 c 0.048,-1.165 0.2849,-1.4019 0.6042,-0.6042 0.2888,0.7219 0.2533,1.5844 -0.079,1.9167 -0.3323,0.3323 -0.5687,-0.2584 -0.5253,-1.3125 z"
     id="path4419"
     inkscape:connector-curvature="0" />
  <path
     style="fill:none;stroke:#000000;stroke-opacity:1"
     d="m -1904.706,1139.0763 c 0.4869,-0.7861 -2.0878,-3.0258 -2.7347,-2.3789 -0.2569,0.2569 -0.5733,-3.6845 -0.7031,-8.7587 -0.1298,-5.0741 -0.4966,-10.1257 -0.8152,-11.2257 -0.3185,-1.1 -0.2704,-1.7097 0.1068,-1.3549 0.3773,0.3547 1.8489,-0.4328 3.2703,-1.75 2.3804,-2.2062 3.401,-2.3951 12.9383,-2.3951 9.0824,0 10.604,-0.2501 12.3904,-2.0365 1.1201,-1.12 1.7923,-2.4316 1.4938,-2.9146 -0.2985,-0.4829 0.023,-1.0665 0.7135,-1.2967 0.9995,-0.3332 1.2563,-26.3552 1.2563,-127.33546 0,-69.8042 -0.3732,-128.6856 -0.8293,-130.8475 -0.6345,-3.0076 -1.0609,-3.5948 -1.8155,-2.5 -0.7536,1.0933 -0.8537,0.9528 -0.4243,-0.5957 0.9891,-3.567 -4.419,-8.6165 -15.3518,-14.3339 -5.5769,-2.9164 -10.7586,-6.2784 -11.5148,-7.4711 -1.2981,-2.0473 -2.7227,-16.6899 -1.5929,-16.3723 0.2907,0.082 1.6536,-0.5626 3.0286,-1.4317 1.375,-0.8692 10.2316,-4.6622 19.6813,-8.4289 9.4498,-3.7667 16.9178,-7.2752 16.5955,-7.7966 -0.3222,-0.5214 -0.064,-0.6253 0.5745,-0.2309 1.3464,0.8322 8.1487,-1.395 8.1487,-2.668 0,-0.472 0.375,-0.6263 0.8335,-0.343 1.0354,0.6399 21.5407,-7.3029 22.0019,-8.5225 0.1844,-0.4879 0.672,-0.679 1.0834,-0.4248 0.4114,0.2543 3.4105,-0.6322 6.6646,-1.97 10.8629,-4.4658 17.0497,-2.7739 19.4765,5.3261 0.6804,2.2707 1.5611,3.9283 1.9572,3.6835 0.3961,-0.2448 0.7421,1.9934 0.7689,4.9739 0.027,2.9804 0.4726,6.1764 0.9907,7.1023 0.8333,1.489 1.391,1.2863 4.8326,-1.757 2.1399,-1.8922 5.4657,-4.514 7.3907,-5.8263 1.925,-1.3123 3.7753,-2.7836 4.1118,-3.2695 0.3365,-0.486 0.9115,-0.8186 1.2779,-0.7391 0.3664,0.08 3.5925,-1.238 7.1691,-2.9279 20.7388,-9.7986 46.2449,-11.6789 69.4093,-5.117 2.4575,0.6962 7.52,2.8026 11.25,4.6811 3.73,1.8784 6.7819,3.2364 6.7819,3.0178 0,-1.9881 21.2486,19.2134 27.1359,27.0758 2.5498,3.4052 4.9498,5.8774 5.3333,5.4939 0.3836,-0.3836 0.5649,-0.2474 0.4029,0.3026 -0.162,0.55 1.8425,5.275 4.4544,10.5 7.2951,14.5937 9.0026,24.4927 8.3658,48.5 -0.6637,25.0198 -4.1476,42.5749 -11.765,59.2841 -1.684,3.6937 -3.1249,7.4722 -3.2021,8.3966 -0.077,0.9244 -0.4312,1.501 -0.7866,1.2814 -0.3554,-0.2197 -1.1753,0.7619 -1.822,2.1812 -0.9196,2.0184 -0.897,2.9374 0.1038,4.2186 1.1121,1.4237 1.0716,1.4759 -0.3093,0.3994 -1.3569,-1.0579 -2.0515,-0.5249 -4.7569,3.6503 -1.7424,2.6889 -3.0137,5.4964 -2.825,6.2387 0.1886,0.7423 0.1673,1.0514 -0.047,0.6868 -0.2147,-0.3646 -5.8785,4.8139 -12.5861,11.5079 -8.7085,8.6908 -14.6262,13.6375 -20.6957,17.2998 -4.675,2.8208 -8.95,5.259 -9.5,5.4181 -0.55,0.1591 -3.7,1.509 -7,2.9997 -8.0754,3.64806 -19.1075,6.59956 -30,8.02606 -14.6554,1.9194 -35.7634,0.2472 -45.75,-3.6243 -1.6493,-0.6393 -1.7495,1.6735 -1.7418,40.1786 0.01,48.97 1.1912,62.7795 5.6911,66.527 1.0145,0.8448 5.8294,1.5525 13.1989,1.9399 13.5638,0.713 15.5569,1.092 15.6948,2.9847 0.056,0.773 0.1892,1.6304 0.2953,1.9054 0.6122,1.5864 0.4829,18.7302 -0.1383,18.3459 -1.0435,-0.6455 -0.936,0.4005 0.3052,2.9698 0.9618,1.9911 0.9292,2.0285 -0.3684,0.4232 -1.1984,-1.4826 -1.6055,-1.5418 -2.5741,-0.3747 -0.9621,1.1592 -9.4627,1.3144 -51.8817,0.9472 -27.902,-0.2415 -58.2259,-0.073 -67.3864,0.3747 -9.1604,0.4477 -16.4778,0.5274 -16.261,0.1772 z"
     id="path4417"
     inkscape:connector-curvature="0" />
  <path
     style="fill:none;stroke:#000000;stroke-opacity:1"
     d="m -1755.7796,977.19674 c 0.3455,-0.559 1.0605,-0.7491 1.589,-0.4225 1.4424,0.8915 10.0693,-4.4797 9.2706,-5.772 -0.3948,-0.639 -0.2208,-0.8152 0.4162,-0.4215 1.8346,1.1338 5.799,-3.8645 5.3078,-6.692 -0.079,-0.4534 0.3019,-0.5493 0.846,-0.213 0.9723,0.6009 5.7303,-7.6974 6.4118,-11.1828 0.1915,-0.979 0.6287,-2.4549 0.9717,-3.2799 0.8942,-2.151 2.6236,-10.1767 2.6524,-12.309 0.015,-1.1225 -0.45,-1.5687 -1.2255,-1.1759 -0.6875,0.3483 -0.3701,-0.08 0.7054,-0.9514 1.8295,-1.4826 1.95,-2.8886 1.87,-21.8242 -0.083,-19.7006 -1.7024,-39.1249 -3.4455,-41.3315 -0.4744,-0.6006 -0.6135,-1.3411 -0.309,-1.6456 0.8281,-0.8281 -3.1077,-16.3566 -5.9864,-23.6191 -4.7267,-11.9251 -14.194,-24.8909 -17.3034,-23.6977 -0.7748,0.2973 -1.1098,0.086 -0.7604,-0.4791 0.3435,-0.5559 -1.9956,-2.2382 -5.1981,-3.7386 -11.4081,-5.3447 -29.8176,-3.0003 -38.8731,4.9505 l -3.3865,2.9734 0.2527,60.6741 c 0.139,33.3708 0.626,61.6815 1.0822,62.9129 0.4562,1.2313 1.2231,1.9954 1.7043,1.698 0.4812,-0.2974 0.6236,0.1141 0.3165,0.9143 -0.8494,2.2137 3.3279,9.5691 7.8063,13.745 3.7639,3.5099 15.8804,10.2122 20.275,11.2154 3.9338,0.8979 14.3936,0.6695 15.01,-0.3278 z"
     id="path4415"
     inkscape:connector-curvature="0" />
  <path
     style="fill:none;stroke:#000000;stroke-opacity:1"
     d="m -1374.2896,1108.654 c 0,-0.9215 -0.471,-1.268 -1.1516,-0.8473 -0.6333,0.3914 -29.5086,0.7116 -64.1671,0.7116 -62.9056,0 -63.0187,0 -64.7244,-2.1101 -0.9397,-1.1606 -2.0617,-1.7918 -2.4931,-1.4027 -0.4315,0.3891 -0.5198,0.2405 -0.1963,-0.3302 0.3234,-0.5708 0.6998,-5.5583 0.8363,-11.0834 0.1524,-6.1669 0.6629,-10.1292 1.3222,-10.2622 0.5907,-0.1191 6.5929,-0.5542 13.3383,-0.9667 9.5349,-0.5832 12.6454,-1.1312 13.9766,-2.4624 2.005,-2.005 2.7058,-16.3781 3.6311,-74.4763 0.4393,-27.57676 0.2961,-35.12896 -0.655,-34.55796 -0.6694,0.4018 -0.542,-0.1039 0.283,-1.124 1.7314,-2.1406 1.5342,-2.0762 -6.5547,2.1437 -3.3301,1.7372 -8.5051,3.9141 -11.5,4.8376 -2.995,0.9234 -6.1203,1.9303 -6.9453,2.2375 -2.0238,0.7536 -2.985,0.9185 -6.5,1.1149 -1.7054,0.095 -2.5029,0.4847 -1.848,0.9023 0.6335,0.4041 -6.1165,0.8675 -15,1.0297 -12.0092,0.2193 -18.4605,-0.1394 -25.152,-1.3986 -4.95,-0.9314 -10.0418,-1.6725 -11.315,-1.6467 -1.2732,0.026 -2.0705,-0.1976 -1.7718,-0.4963 0.731,-0.731 -14.4431,-7.48 -16.6849,-7.4211 -0.9743,0.026 -1.5407,-0.3269 -1.2585,-0.7834 0.6645,-1.0753 -4.2438,-4.3066 -5.429,-3.5741 -0.4965,0.3068 -1.2283,0.031 -1.6263,-0.613 -0.4798,-0.7764 -0.2505,-0.9254 0.6809,-0.4422 0.7725,0.4008 0.5046,0.017 -0.5954,-0.8527 -3.9497,-3.1229 -15.5,-14.8747 -15.5,-15.7703 0,-0.5031 -0.5625,-0.5909 -1.25,-0.1953 -0.6875,0.3956 -0.9452,0.3799 -0.5726,-0.035 0.7766,-0.865 -5.8079,-11.6543 -7.859,-12.8778 -0.7483,-0.4463 -1.1362,-1.1743 -0.8621,-1.6178 0.2741,-0.4436 -0.7289,-4.1667 -2.229,-8.2737 -1.9715,-5.3979 -3.143,-7.3533 -4.2273,-7.056 -1.2051,0.3304 -1.2351,0.2254 -0.1527,-0.534 1.1195,-0.7855 1.04,-2.2777 -0.4705,-8.8262 -2.6844,-11.6382 -2.5181,-50.0436 0.2464,-56.8808 0.4447,-1.1 0.8137,-3.6611 0.82,-5.6913 0.01,-2.0584 0.3463,-3.1643 0.7687,-2.5 0.5078,0.7987 0.7625,0.6084 0.7727,-0.5775 0.01,-0.9728 1.1324,-4.9661 2.4978,-8.8739 1.3653,-3.9079 2.1958,-7.569 1.8454,-8.1358 -0.3503,-0.5668 -0.1645,-0.7386 0.4129,-0.3818 0.5773,0.3569 1.3167,-0.047 1.643,-0.8974 0.3976,-1.0362 0.1848,-1.3156 -0.6452,-0.8472 -0.6812,0.3845 -0.1955,-0.3131 1.0793,-1.5502 1.2747,-1.237 2.0674,-2.9016 1.7614,-3.699 -0.3106,-0.8094 -0.1197,-1.1799 0.4322,-0.8388 0.8642,0.5341 1.0921,0.045 0.9528,-2.0428 -0.02,-0.2947 0.6595,-1.2309 1.5092,-2.0806 0.8497,-0.8497 1.2463,-2.0282 0.8812,-2.6188 -0.365,-0.5907 -0.2267,-0.8039 0.3074,-0.4738 0.534,0.3301 1.804,-0.8379 2.8222,-2.5955 1.0181,-1.7576 2.9037,-4.4712 4.1901,-6.0303 1.2865,-1.559 2.0776,-3.2577 1.758,-3.7747 -0.3195,-0.5171 0.015,-0.8165 0.7433,-0.6654 0.7325,0.152 1.2631,-0.5025 1.1873,-1.4644 -0.075,-0.9566 0.1932,-1.5351 0.5969,-1.2856 1.1169,0.6903 6.1786,-4.9923 5.3042,-5.9549 -0.4202,-0.4625 -0.267,-0.5577 0.3406,-0.2114 1.0463,0.5962 5.2056,-2.958 5.3348,-4.5589 0.033,-0.4125 0.3981,-0.7883 0.8106,-0.835 1.6166,-0.1833 3.3151,-2.3029 2.8391,-3.5432 -0.276,-0.7193 -0.072,-1.5737 0.4545,-1.8988 0.526,-0.3251 0.9564,-0.06 0.9564,0.59 0,0.8152 0.6967,0.7183 2.25,-0.313 1.2375,-0.8217 2.25,-2.0016 2.25,-2.622 0,-0.6204 0.225,-1.052 0.5,-0.959 1.2985,0.4388 4.9763,-2.3982 4.3735,-3.3737 -0.4133,-0.6686 -0.2244,-0.8211 0.4788,-0.3866 0.6387,0.3948 2.3957,-0.1537 3.9045,-1.2188 7.7266,-5.4547 28.1673,-13.1899 34.855,-13.1899 1.3135,0 2.3882,-0.3792 2.3882,-0.8427 0,-0.4635 9.225,-0.818 20.5,-0.7878 11.275,0.03 20.5,0.3482 20.5,0.7068 0,0.3585 1.9686,0.9217 4.3747,1.2515 2.4061,0.3298 8.8186,2.0679 14.25,3.8625 5.4314,1.7946 10.4329,3.2118 11.1145,3.1492 0.6816,-0.062 0.9925,0.2855 0.691,0.7734 -0.8273,1.3386 -0.7134,1.3139 22.9813,-4.9817 18.5558,-4.9302 33.3656,-8.2501 28.9159,-6.4821 -0.6888,0.2737 0.3397,1.8518 2.4926,3.8248 2.0159,1.8474 3.9358,2.9212 4.2665,2.3861 1.032,-1.6699 0.9856,9.4589 -0.054,13.0563 -0.5433,1.8789 -1.7852,11.1039 -2.7599,20.5 -1.5994,15.4186 -1.7721,29.7459 -1.7721,147.0003 0,99.78386 0.2769,130.00886 1.1938,130.31456 0.6566,0.2189 0.9428,1.052 0.6361,1.8514 -0.8966,2.3365 1.7738,7.5063 4.3913,8.5015 1.3249,0.5038 5.722,0.9159 9.7713,0.9159 6.8195,0 7.5199,0.2004 9.5002,2.7179 1.9268,2.4495 2.0889,3.6101 1.6412,11.75 -0.2733,4.9677 -0.5327,10.0446 -0.5766,11.2821 -0.089,2.5104 -1.0573,3.1433 -1.0573,0.691 z"
     id="path4413"
     inkscape:connector-curvature="0" />
  <path
     style="fill:none;stroke:#000000;stroke-opacity:1"
     d="m -1489.7896,941.69564 c 3.85,-0.8155 7.1509,-1.9355 7.3354,-2.4889 0.1844,-0.5534 0.7201,-0.7684 1.1904,-0.4778 0.4702,0.2907 1.8479,-0.494 3.0616,-1.7437 1.2137,-1.2497 1.8291,-1.5972 1.3677,-0.7722 -0.7267,1.2991 -0.6095,1.3137 0.8751,0.1091 1.5905,-1.2905 1.6945,-5.7996 1.442,-62.5 l -0.2722,-61.1091 -2.3674,-5.2365 c -1.3394,-2.9628 -2.8177,-4.9582 -3.4045,-4.5955 -0.5704,0.3526 -0.7508,0.1777 -0.4008,-0.3886 1.5127,-2.4476 -13.2449,-17.9088 -16.062,-16.8277 -0.7531,0.2889 -1.0943,0.081 -0.7583,-0.4632 0.3361,-0.5437 0.1344,-1.0447 -0.448,-1.1135 -1.9107,-0.2255 -2.546,-0.3983 -3.559,-0.9678 -0.55,-0.3092 -3.4058,-0.6417 -6.3462,-0.739 -7.5572,-0.2499 -19.2817,5.1978 -17.4758,8.12 0.3471,0.5614 0.1492,0.7231 -0.4395,0.3592 -1.5263,-0.9433 -7.4108,6.2947 -11.0694,13.6154 -7.3497,14.7067 -11.041,38.7705 -9.7874,63.8048 0.2873,5.7378 0.5324,12.1296 0.5446,14.2039 0.015,2.5293 0.5523,3.975 1.6318,4.3892 1.2195,0.468 1.3054,0.8056 0.3543,1.3934 -0.9895,0.6116 -0.8773,2.1725 0.5303,7.3724 0.9821,3.6281 2.1842,6.843 2.6714,7.1441 0.4872,0.3011 0.8859,1.4474 0.8859,2.5474 0,1.1 0.4448,1.7251 0.9885,1.3891 0.5615,-0.3471 0.7376,0.043 0.4076,0.903 -0.3475,0.9056 0.5613,2.5998 2.2614,4.2155 1.5634,1.4859 2.1675,2.3078 1.3425,1.8266 -1.1034,-0.6435 -0.9967,-0.092 0.4033,2.0865 3.7552,5.8425 4.2874,6.4383 5.0967,5.7049 0.4513,-0.409 0.5309,-0.236 0.1767,0.3843 -0.8426,1.4761 7.1788,10.5794 8.5665,9.7218 0.5973,-0.3692 0.776,-0.1899 0.4065,0.408 -0.8804,1.4245 6.9789,7.5898 8.487,6.6578 0.7326,-0.4528 0.9047,-0.2915 0.4587,0.43 -0.3924,0.635 -0.2369,1.1545 0.3455,1.1545 1.9169,0 2.5373,0.2216 4.5316,1.6184 2.5329,1.7741 8.2247,1.7287 17.0275,-0.1358 z"
     id="path4411"
     inkscape:connector-curvature="0" />
  <path
     style="fill:none;stroke:#000000;stroke-opacity:1"
     d="m -1530.4172,796.46304 c -1.2439,-1.5861 -1.2085,-1.6214 0.3776,-0.3776 0.9625,0.7549 1.75,1.5424 1.75,1.75 0,0.8231 -0.8212,0.2933 -2.1276,-1.3724 z"
     id="path4409"
     inkscape:connector-curvature="0" />
  <path
     style="fill:none;stroke:#000000;stroke-opacity:1"
     d="m -1489.8188,792.46304 -1.7593,-2.75 2.6442,2.4243 c 2.859,2.6212 3.119,3.0757 1.7593,3.0757 -0.4868,0 -1.6767,-1.2375 -2.6442,-2.75 z"
     id="path4407"
     inkscape:connector-curvature="0" />
  <path
     style="fill:none;stroke:#000000;stroke-opacity:1"
     d="m -2073.2896,1007.7291 c -18.7303,-2.4703 -32.6099,-7.6044 -45.9982,-17.01476 -2.8212,-1.983 -5.6187,-3.2618 -6.2911,-2.8758 -0.6659,0.3824 -0.9391,0.3889 -0.6071,0.014 0.332,-0.3743 -3.7313,-5.059 -9.0296,-10.4103 -11.3548,-11.4685 -15.4147,-16.0691 -16.3643,-18.5437 -0.3826,-0.997 -1.098,-1.5641 -1.5898,-1.2601 -0.4918,0.3039 -0.8324,-0.2301 -0.757,-1.1867 0.076,-0.9619 -0.4548,-1.6164 -1.1873,-1.4644 -0.7284,0.1511 -1.0512,-0.1672 -0.7173,-0.7073 0.3338,-0.5402 -0.729,-3.3638 -2.3619,-6.2748 -1.6329,-2.911 -3.9324,-7.9927 -5.1101,-11.2927 -1.1777,-3.3 -2.3994,-6.675 -2.7148,-7.5 -0.3155,-0.825 -0.6786,-1.95 -0.8068,-2.5 -0.1283,-0.55 -0.7395,-2.8637 -1.3584,-5.1416 -3.9756,-14.6348 -5.1461,-39.7422 -2.5575,-54.8584 1.6783,-9.8001 1.6893,-9.8476 3.1298,-13.5 0.5423,-1.375 2.0565,-5.425 3.3649,-9 2.9463,-8.05 10.0006,-20.9321 15.9565,-29.1385 2.475,-3.4102 4.3875,-6.5742 4.25,-7.031 -0.1375,-0.4568 0.1143,-0.718 0.5597,-0.5805 0.4454,0.1375 3.0341,-2 5.7526,-4.75 22.8581,-23.1224 49.6404,-35.8383 81.1093,-38.5095 15.8641,-1.3467 33.3063,-0.065 47.8284,3.5158 10.893,2.6855 28.9903,10.9189 36.5,16.6056 6.4209,4.8623 10.3841,7.3672 11.25,7.1105 0.4125,-0.1223 0.6581,0.1151 0.5457,0.5276 -0.1123,0.4125 4.1135,5.1085 9.3906,10.4355 11.5739,11.6833 14.3636,15.4669 20.5487,27.8692 6.1689,12.3699 6.7518,13.8667 9.2309,23.7046 6.107,24.234 4.0046,53.445 -5.4917,76.3027 -1.8789,4.5226 -3.1347,8.6783 -2.7907,9.2349 0.3561,0.5763 0.1283,0.7048 -0.529,0.2986 -0.635,-0.3924 -1.1545,-0.237 -1.1545,0.3455 0,1.6042 -0.3022,2.4598 -1.2566,3.559 -0.4776,0.55 -3.1892,4.6 -6.0258,9 -2.8366,4.4 -6.746,9.727 -8.6875,11.8379 -1.9416,2.1108 -3.95,4.5805 -4.4632,5.4883 -1.7071,3.0196 -12.9429,12.3917 -23.0219,19.2033 -5.7339,3.8751 -20.4725,11.48146 -23.7844,12.27476 -1.2433,0.2978 -5.6356,1.4874 -9.7606,2.6435 -17.1728,4.8129 -44.2804,6.301 -65,3.5683 z"
     id="path4405"
     inkscape:connector-curvature="0" />
  <path
     style="fill:none;stroke:#000000;stroke-opacity:1"
     d="m -2039.0863,977.17334 c 5.8778,-1.6325 13.2446,-8.1463 17.1705,-15.1826 9.3045,-16.6761 13.3336,-36.623 14.3128,-70.858 0.6183,-21.6149 -0.991,-45.4947 -2.8822,-42.7684 -0.6575,0.948 -0.757,0.7104 -0.3349,-0.7996 1.6941,-6.0592 -6.2478,-28.6407 -14.1538,-40.2442 -0.1471,-0.2159 -1.0658,0.2341 -2.0416,1 -1.6365,1.2845 -1.6605,1.2481 -0.3093,-0.4688 1.3432,-1.7069 1.0942,-2.1822 -3,-5.7253 -6.5805,-5.6948 -11.4428,-7.2867 -20.3069,-6.6488 -4.0483,0.2914 -8.8889,1.3184 -10.7587,2.2826 -11.2899,5.822 -20.6116,25.8916 -25.0596,53.9528 -1.7781,11.2181 -1.7629,59.5836 0.022,69.5 3.2044,17.8036 8.8956,34.3313 14.9789,43.5 3.0975,4.6684 4.1777,5.5873 5.6119,4.7737 0.5762,-0.3269 0.7093,-0.2212 0.2956,0.2348 -0.9348,1.0305 2.1956,4.6445 3.3858,3.9089 0.4765,-0.2945 0.8663,-0.1174 0.8663,0.3936 0,0.8147 4.1809,2.2245 10.5,3.5405 3.749,0.7807 7.9947,0.6388 11.7034,-0.3912 z"
     id="path4403"
     inkscape:connector-curvature="0" />
  <path
     style="fill:none;stroke:#000000;stroke-opacity:1"
     d="m -1353.7896,999.10114 c -1.1,-0.6252 -2.5625,-1.8418 -3.25,-2.7036 -1.7388,-2.1794 -1.6473,-21.078 0.1133,-23.3952 2.204,-2.9009 6.3387,-3.7893 17.6367,-3.7893 5.9783,0 11.9799,-0.4221 13.3368,-0.938 5.0327,-1.9134 5.151,-3.5315 5.1573,-70.562 l 0.01,-62 -2.4089,-6 c -1.3811,-3.4402 -4.1542,-7.7633 -6.5,-10.133 -4.682,-4.7299 -13.4701,-10.5598 -14.7374,-9.7766 -0.4695,0.2902 -0.8537,0.1183 -0.8537,-0.3819 0,-0.5003 -2.2553,-2.3115 -5.0118,-4.0251 -2.9055,-1.8061 -5.4637,-4.2856 -6.0869,-5.8995 -1.3536,-3.5052 -0.3945,-11.0814 1.6951,-13.3904 0.8724,-0.964 7.6201,-4.3333 14.9949,-7.4874 7.3748,-3.1542 13.4087,-6.0359 13.4087,-6.4038 0,-0.3679 0.6424,-0.669 1.4274,-0.669 2.2572,0 16.5726,-6.5021 16.5726,-7.5273 0,-0.5082 0.3888,-0.6837 0.864,-0.39 0.7849,0.485 22.9455,-8.5953 29.0799,-11.9155 4.5174,-2.445 14.0403,-5.5005 17.1433,-5.5005 4.1511,0 8.6064,2.5004 10.2755,5.7669 0.7681,1.5032 2.1379,9.2581 3.044,17.2331 0.9061,7.975 1.9155,16.2801 2.2431,18.4558 l 0.5956,3.9559 2.0294,-3.9559 c 1.1162,-2.1757 1.9226,-4.1305 1.7919,-4.344 -0.1306,-0.2135 0.1911,-0.6635 0.715,-1 1.9712,-1.2661 11.0015,-13.9954 10.3737,-14.6231 -0.3604,-0.3604 -0.2053,-0.5358 0.3447,-0.3896 1.3369,0.3554 11.075,-8.9325 10.7252,-10.2292 -0.1511,-0.5602 0.1047,-0.7841 0.5684,-0.4974 0.4638,0.2866 3.5087,-1.249 6.7664,-3.4124 3.2578,-2.1634 9.302,-5.1769 13.4316,-6.6968 6.4277,-2.3656 9.0196,-2.7633 18.0083,-2.7633 10.3106,0 15.0078,0.4559 16,1.5528 0.2751,0.304 2.156,1.5588 4.1801,2.7883 4.8768,2.9626 9.575,8.4314 12.3047,14.3235 1.222,2.6375 2.4281,4.5891 2.6803,4.3369 0.554,-0.5538 0.3229,20.164 -0.2564,22.9985 -0.2248,1.1 -0.8587,2.4894 -1.4087,3.0876 -0.55,0.5981 -2.5231,3.331 -4.3846,6.0729 -1.8616,2.7419 -4.9987,6.0775 -6.9715,7.4124 -1.9727,1.3349 -4.4773,3.3047 -5.5656,4.3774 -1.0884,1.0727 -2.6763,2.0475 -3.5286,2.1663 -0.8523,0.1187 -4.0247,0.9233 -7.0497,1.7878 -10.2855,2.9395 -22.4915,1.4951 -32.7661,-3.8773 -6.7484,-3.5286 -12.9073,-4.1559 -16.7959,-1.7106 -3.4823,2.1898 -8.0694,11.0088 -11.6464,22.3913 -2.2841,7.2682 -2.2916,7.493 -2.2916,68.2922 0,56.3456 0.1343,61.2457 1.7604,64.2204 0.9681,1.7712 2.6261,3.6837 3.6842,4.25 1.0811,0.5785 8.6838,1.0296 17.3549,1.0296 14.1543,0 15.6514,0.1735 18.0966,2.0969 2.6463,2.0816 2.6637,2.1811 2.3849,13.6445 -0.3943,16.20606 1.4031,15.34216 -29.2809,14.0751 -22.4817,-0.9284 -118.3234,-0.3793 -125.0001,0.7161 -1.65,0.27076 -3.9,-0.019 -5,-0.6445 z"
     id="path4401"
     inkscape:connector-curvature="0" />
  <path
     style="fill:none;stroke:#000000;stroke-opacity:1"
     d="m -1982.7896,997.21304 c 0.3399,-0.55 0.8164,-1 1.059,-1 0.2425,0 0.441,0.45 0.441,1 0,0.55 -0.4766,1 -1.0591,1 -0.5824,0 -0.7809,-0.45 -0.4409,-1 z"
     id="path4399"
     inkscape:connector-curvature="0" />
  <path
     style="fill:none;stroke:#000000;stroke-opacity:1"
     d="m -1051.2896,993.92314 c -0.275,-0.285 -3.2,-0.7425 -6.5,-1.0167 -6.1541,-0.5113 -16.1732,-2.9595 -27.2871,-6.6678 -3.4579,-1.1538 -6.7899,-1.787 -7.4045,-1.4072 -0.6146,0.3798 -0.8568,0.269 -0.5383,-0.2464 0.3185,-0.5153 -1.8853,-2.2272 -4.8972,-3.8041 -6.795,-3.5576 -8.0433,-5.8873 -9.8165,-18.3197 -0.7647,-5.3615 -1.6577,-11.3232 -1.9844,-13.2482 -0.3268,-1.925 -0.7607,-5.075 -0.9644,-7 -0.2037,-1.925 -1.1162,-8.801 -2.0277,-15.2801 -2.208,-15.6932 -1.7494,-16.5839 10.1908,-19.7927 6.0952,-1.6379 8.9147,-1.9879 10.0935,-1.2527 1.8578,1.1586 10.0335,11.397 10.0953,12.6422 0.05,1.007 5.2576,8.0576 6.2905,8.5166 0.4125,0.1834 0.75,0.794 0.75,1.357 0,0.563 2.8917,5.1712 6.426,10.2405 7.605,10.9078 16.4498,19.419 23.7871,22.8902 9.8437,4.6568 24.9478,5.2328 32.6586,1.2454 8.0981,-4.1877 13.10397,-13.4855 13.11847,-24.3661 0.012,-8.5812 -1.44767,-12.1084 -7.19867,-17.4012 -5.6559,-5.2053 -13.2009,-8.5562 -37.4298,-16.6233 -23.4777,-7.8171 -32.4034,-11.9093 -42.8884,-19.6633 -20.2729,-14.9926 -28.164,-34.6721 -25.4673,-63.5125 1.5479,-16.5534 7.0258,-30.0941 16.9887,-41.9937 2.1751,-2.5979 3.6286,-5.0843 3.23,-5.5252 -0.3986,-0.441 -0.2151,-0.5107 0.4078,-0.1551 1.5019,0.8578 6.5733,-3.1839 5.7225,-4.5606 -0.375,-0.6067 -0.1983,-0.7866 0.4058,-0.4132 0.5884,0.3636 2.4104,-0.4668 4.0489,-1.8455 1.6384,-1.3787 3.2274,-2.5067 3.5311,-2.5067 0.3036,0 3.2695,-1.5927 6.5909,-3.5393 14.6128,-8.5643 27.1122,-11.4607 49.4588,-11.4607 27.72587,0 54.03047,6.4847 64.28067,15.8468 3.4747,3.1737 3.5286,3.3705 8.9333,32.6172 4.013,21.716 3.945,22.2103 -3.5181,25.5976 -2.5225,1.145 -5.3678,2.4994 -6.3228,3.01 -0.9551,0.5106 -3.41,0.9284 -5.4554,0.9284 -3.4052,0 -4.5295,-0.8453 -13.3272,-10.0198 -5.2845,-5.5108 -9.9892,-9.6733 -10.4549,-9.25 -0.4657,0.4234 -0.5714,0.2855 -0.2348,-0.3064 0.7291,-1.2823 -13.14327,-16.5764 -18.66617,-20.5791 -2.1312,-1.5446 -4.3383,-2.522 -4.9045,-2.172 -0.5663,0.35 -0.7412,0.1696 -0.3886,-0.4009 0.3636,-0.5883 -1.6248,-2.0357 -4.5955,-3.3449 -7.1527,-3.1522 -18.223,-3.1672 -24.9865,-0.034 -2.6125,1.2103 -4.75,2.5769 -4.75,3.0371 0,0.4601 -0.9334,1.0806 -2.0742,1.379 -1.1408,0.2983 -2.3183,1.4758 -2.6166,2.6166 -0.2984,1.1408 -0.8977,2.0742 -1.3318,2.0742 -1.1522,0 -3.9783,8.8431 -3.9718,12.4281 0.016,9.0011 4.7238,15.5599 14.3175,19.9481 5.6866,2.6011 16.0062,6.3114 19.4033,6.9762 0.9755,0.1909 2.4486,0.6207 3.2736,0.9549 0.825,0.3343 4.425,1.3218 8,2.1943 8.2465,2.0127 29.33857,8.7637 29.99997,9.6022 0.275,0.3487 2.75,1.8353 5.5,3.3036 7.2878,3.8912 10.5793,6.4865 18.1915,14.3443 8.1294,8.3915 13.5866,17.2146 16.5443,26.7483 1.8005,5.8037 2.1668,9.3926 2.1436,21 -0.028,13.6981 -0.4339,19.125 -1.5762,21.0452 -0.3124,0.5252 -0.8999,2.5298 -1.3056,4.4548 -2.1161,10.0419 -12.4364,27.0749 -21.2058,34.9991 -12.9672,11.7173 -27.0918,18.9381 -45.29177,23.1542 -8.0943,1.8751 -41.7282,3.875 -43,2.5568 z"
     id="path4397"
     inkscape:connector-curvature="0" />
  <path
     style="fill:none;stroke:#000000;stroke-opacity:1"
     d="m -798.02963,992.71594 c -12.366,-2.851 -23.1525,-8.6988 -31.1757,-16.9017 -2.4286,-2.4829 -4.8606,-4.2395 -5.4045,-3.9033 -0.5438,0.3361 -0.7188,0.1742 -0.3887,-0.3598 0.33,-0.5341 -0.7355,-2.9661 -2.3678,-5.4045 -4.7147,-7.0431 -7.3196,-16.9089 -7.3753,-27.9336 -0.026,-5.225 0.3434,-39.0875 0.8217,-75.25 l 0.8697,-65.75 -13.6518,0 c -14.5665,0 -19.0822,-1.0127 -21.7966,-4.888 -0.8087,-1.1546 -1.6674,-1.9022 -1.9082,-1.6614 -0.9299,0.9299 0.045,-9.8574 1.1153,-12.3348 0.6212,-1.4387 2.8472,-3.9658 4.9465,-5.6158 2.0993,-1.65 3.5761,-3.407 3.2817,-3.9045 -0.2944,-0.4975 -0.01,-0.5801 0.6313,-0.1835 1.391,0.8597 9.7196,-3.7607 18.3863,-10.2001 22.5475,-16.7527 60.6559,-51.85046 59.1471,-54.47426 -0.3914,-0.6807 -0.3504,-0.911 0.091,-0.5118 0.4416,0.3992 3.4433,-1.7188 6.6705,-4.7066 8.1815,-7.5746 15.6255,-8.5945 20.9718,-2.8733 l 2.3756,2.5422 -0.226,24.65586 c -0.1243,13.5608 -0.4894,26.5685 -0.8113,28.906 l -0.5852,4.25 32.9264,0 c 42.5903,0 40.7933,-1.0457 35.6742,20.7582 -1.3871,5.908 -3.0114,12.2478 -3.6095,14.0886 -1.8797,5.7844 -4.0786,6.1532 -36.6883,6.1532 l -28.8839,0 -0.6422,8.25 c -1.0029,12.8829 -0.7046,107.3861 0.3649,115.6249 1.1136,8.5776 3.9519,18.261 5.1379,17.5281 0.451,-0.2788 0.5771,0.1262 0.2802,0.9 -0.7755,2.0209 5.5008,9.8766 9.5898,12.0031 5.5362,2.8791 21.5475,2.0098 29.3438,-1.593 9.7687,-4.5144 12.5687,-3.7226 16.9293,4.7869 3.6445,7.1121 3.9734,8.9097 2.3438,12.8099 -3.2478,7.7731 -26.1901,19.0136 -48.4,23.7134 -12.9373,2.7377 -39.0363,3.5424 -47.9839,1.4796 z"
     id="path4395"
     inkscape:connector-curvature="0" />
  <path
     style="fill:none;stroke:#000000;stroke-opacity:1"
     d="m -547.54303,992.68194 c -14.9885,-2.982 -27.6189,-12.5879 -39.4044,-29.9685 -8.3784,-12.3561 -13.2749,-24.719 -15.4463,-39 -0.8684,-5.7112 -1.1612,-24.6719 -1.0235,-66.2717 0.1224,-36.9722 -0.1787,-59.652 -0.8238,-62.0477 -1.8577,-6.8992 -8.4909,-11.3094 -19.0486,-12.6648 -9.2961,-1.1935 -10,-2.0683 -10,-12.4281 0,-7.2369 0.351,-9.2999 1.9103,-11.2269 l 1.9104,-2.3608 47.8396,-0.6869 c 26.3119,-0.3778 48.8761,-0.7183 50.1427,-0.7568 3.0182,-0.092 5.8458,1.478 7.6655,4.2553 1.2285,1.875 1.322,4.5246 0.572,16.2148 -0.493,7.6855 -1.0414,41.1986 -1.2185,74.4736 -0.3291,61.8422 -0.037,68.3385 3.6493,81.0925 2.8504,9.8623 8.6226,18.2131 14.1999,20.5435 1.7955,0.7502 6.3571,1.364 10.137,1.364 5.7202,0 7.9469,-0.5347 13.2821,-3.1895 7.5559,-3.7598 15.7974,-11.7691 19.6718,-19.1176 l 2.7379,-5.1929 -0.3682,-66 c -0.3081,-55.2184 -0.6055,-66.4635 -1.821,-68.8376 -1.8057,-3.5269 -7.8003,-6.2227 -15.8108,-7.1101 -12.5631,-1.3919 -14.5,-3.1885 -14.5,-13.4501 0,-7.2532 1.6016,-12.0002 4.4088,-13.0675 1.1898,-0.4524 25.4264,-0.9784 53.8591,-1.169 l 51.6957,-0.3465 2.2088,2.2088 c 2.2004,2.2004 2.2038,2.2615 0.8844,15.9904 -1.6814,17.4958 -2.6545,138.4623 -1.2547,155.9702 0.6545,8.1861 1.5858,13.4401 2.8362,16 1.8565,3.8008 1.8784,3.8112 7.8617,3.7376 3.3,-0.041 8.7,-0.4299 12,-0.865 8.5662,-1.1295 10.1624,0.3815 11.7028,11.0782 1.8452,12.8127 4.6209,11.2604 -39.8201,22.27 -20.8355,5.1617 -38.6931,9.7968 -39.6837,10.3002 -0.9905,0.5034 -4.8489,1.1708 -8.5742,1.4832 -7.9091,0.663 -13.3631,-1.2939 -15.5448,-5.5776 -1.0748,-2.1105 -3.58,-18.287 -3.58,-23.1166 0,-0.6384 -3.1676,1.7304 -7.039,5.2638 -10.9574,10.0006 -27.5324,18.1147 -44.461,21.7654 -10.7098,2.3096 -31.2689,2.5266 -41.7534,0.4407 z"
     id="path4393"
     inkscape:connector-curvature="0" />
  <path
     style="fill:none;stroke:#000000;stroke-opacity:1"
     d="m -1323.2107,836.62974 c 0.048,-1.165 0.2849,-1.4019 0.6042,-0.6042 0.2888,0.7219 0.2533,1.5844 -0.079,1.9167 -0.3323,0.3323 -0.5687,-0.2584 -0.5253,-1.3125 z"
     id="path4391"
     inkscape:connector-curvature="0" />
  <path
     style="fill:none;stroke:#000000;stroke-opacity:1"
     d="m -1224.7196,812.32634 c -0.3014,-0.4877 0.2346,-1.5002 1.191,-2.25 1.5362,-1.2043 1.5942,-1.1776 0.4977,0.2287 -0.6827,0.8756 -0.9452,1.8881 -0.5833,2.25 0.3619,0.3619 0.3845,0.658 0.05,0.658 -0.3342,0 -0.8543,-0.399 -1.1557,-0.8867 z"
     id="path4389"
     inkscape:connector-curvature="0" />
  <path
     style="fill:none;stroke:#000000;stroke-opacity:1"
     d="m -2149.2896,809.95794 c 0,-0.275 0.6349,-1.027 1.4109,-1.671 1.0871,-0.9022 1.583,-0.8729 2.1604,0.1275 0.4121,0.7142 0.3811,0.965 -0.069,0.5573 -0.4501,-0.4078 -1.4223,-0.2402 -2.1604,0.3724 -0.7381,0.6126 -1.342,0.8888 -1.342,0.6138 z"
     id="path4387"
     inkscape:connector-curvature="0" />
  <path
     style="fill:none;stroke:#000000;stroke-opacity:1"
     d="m -1591.2896,793.83544 c 0,-0.2076 0.7875,-0.9951 1.75,-1.75 1.586,-1.2438 1.6214,-1.2085 0.3775,0.3776 -1.3064,1.6657 -2.1275,2.1955 -2.1275,1.3724 z"
     id="path4385"
     inkscape:connector-curvature="0" />
  <path
     style="fill:none;stroke:#000000;stroke-opacity:1"
     d="m -1534.1161,614.70664 c -1.8978,-2.41268 -2.1735,-4.01485 -2.1735,-12.6284 0,-8.53181 0.2703,-10.13545 2,-11.86514 1.1,-1.1 2.7875,-2.0556 3.75,-2.12356 0.9625,-0.068 5.0942,-0.27469 9.1816,-0.45939 5.8907,-0.26619 7.8604,-0.76472 9.5,-2.40446 l 2.0684,-2.06864 0,-144.42907 c 0,-143.22338 -0.017,-144.44256 -2,-146.04613 -1.1,-0.88939 -1.4375,-1.33214 -0.75,-0.98389 2.8752,1.45642 0.3055,-3.43115 -4.5804,-8.71186 -1.9828,-2.14301 -4.154,-3.60925 -4.9132,-3.31792 -0.7482,0.28711 -1.0854,0.0772 -0.7494,-0.46653 0.5499,-0.88971 -0.7719,-1.42042 -2.757,-1.10697 -0.4125,0.0651 -0.75,-0.29489 -0.75,-0.80005 0,-0.50516 -2.9401,-1.89684 -6.5334,-3.09263 -3.5934,-1.19579 -7.8684,-3.29748 -9.5,-4.67043 -2.8329,-2.38375 -2.9666,-2.85629 -2.9666,-10.48429 0,-7.38187 0.2086,-8.19639 2.75,-10.73394 1.9917,-1.98875 4.5423,-3.08431 9.25,-3.97315 13.4573,-2.54082 36,-8.35188 36,-9.2801 0,-0.53077 0.4521,-0.6856 1.0047,-0.34407 1.2636,0.78097 32.6888,-8.58848 40.6008,-12.10515 14.2067,-6.31456 20.5933,-6.91808 25.7059,-2.42919 3.2533,2.85647 3.3507,3.14917 2.5772,7.75 -1.4457,8.59915 -4.4277,248.28328 -3.089,248.28176 1.6848,-0.002 6.1125,-3.33344 5.5785,-4.19744 -0.4275,-0.69173 -0.2301,-0.82945 0.5223,-0.36445 1.706,1.05441 28.6245,-25.78006 27.5709,-27.48489 -0.477,-0.77179 -0.3756,-1.01244 0.2608,-0.61908 1.2961,0.80099 3.5234,-1.71724 2.5092,-2.83681 -0.4077,-0.45008 -0.2133,-0.51588 0.4322,-0.14624 1.3803,0.7905 5.6198,-4.68704 4.5469,-5.87463 -0.3962,-0.4386 -0.1981,-0.49859 0.4402,-0.13331 1.325,0.75813 7.5754,-7.15261 6.7309,-8.51892 -0.2971,-0.48077 -0.022,-0.75047 0.6109,-0.59935 0.6331,0.15113 2.3061,-1.89465 3.7177,-4.54617 2.3375,-4.39069 2.4257,-4.96174 0.9889,-6.39856 -2.0592,-2.05917 -10.9011,-3.46427 -12.0534,-1.91543 -0.5241,0.7045 -0.6308,0.47124 -0.2814,-0.61506 0.3097,-0.9625 0.1574,-1.75 -0.3382,-1.75 -0.4957,0 -1.2058,-0.95946 -1.578,-2.13213 -0.3771,-1.18831 -0.9603,-1.67168 -1.3174,-1.09196 -1.0541,1.71148 -0.3534,-16.08622 0.7474,-18.98148 0.5589,-1.47005 1.8253,-3.05737 2.8141,-3.52737 0.9888,-0.46999 27.1815,-0.78719 58.2059,-0.70487 53.469,0.14186 56.478,0.24528 57.75,1.98487 0.9157,1.25223 1.342,5.08683 1.342,12.07149 0,9.86735 -0.095,10.31099 -2.6349,12.30887 -2.0135,1.58384 -4.0776,2.07258 -8.7532,2.07258 -11.5561,0 -30.1449,6.93664 -42.5009,15.85969 -8.9178,6.4402 -14.2648,10.62781 -12.2065,9.55997 0.9547,-0.49531 1.1628,-0.33762 0.6498,0.49236 -0.415,0.67157 -0.9937,0.98194 -1.286,0.68969 -0.954,-0.95406 -4.3431,1.46825 -3.6418,2.60297 0.3964,0.64148 0.2273,0.823 -0.4036,0.4331 -0.5974,-0.36918 -1.7919,0.33642 -2.6545,1.568 -0.8627,1.23158 -1.5684,1.81107 -1.5684,1.28776 0,-0.52331 -1.0125,0.0445 -2.25,1.26183 -1.2375,1.21732 -5.5138,4.96137 -9.5027,8.32012 -3.9939,3.36286 -6.9574,6.58461 -6.5955,7.17017 0.3886,0.62877 0.1822,0.76983 -0.5049,0.34515 -0.6836,-0.42249 -3.2465,1.27018 -6.2244,4.11094 l -5.0624,4.82915 6.342,7.48455 c 3.4882,4.1165 7.2849,8.70679 8.4372,10.20064 1.1523,1.49385 2.452,2.39385 2.8882,2 0.4362,-0.39385 0.5215,-0.23792 0.1896,0.3465 -0.3319,0.58443 1.1709,3.0038 3.3397,5.37638 2.1687,2.37259 3.9432,4.63718 3.9432,5.03242 0,1.35741 3.6625,4.03273 4.4914,3.28079 0.4561,-0.4137 0.5311,-0.23113 0.1668,0.40571 -0.8081,1.4126 12.1722,17.56491 13.4707,16.76242 0.5063,-0.31293 0.797,0.027 0.6458,0.75536 -0.1511,0.72838 0.3212,1.20068 1.0496,1.04955 0.7284,-0.15112 1.0271,0.20609 0.6639,0.79381 -0.8659,1.40105 1.4355,4.14614 2.7796,3.31545 0.5843,-0.36114 0.7443,-0.16319 0.3646,0.45114 -0.8797,1.42343 5.243,8.40942 6.6228,7.55663 0.6266,-0.38725 0.7569,-0.17091 0.3214,0.53366 -0.4451,0.72033 2.6942,5.19183 8.007,11.4045 9.2658,10.8352 13.0261,14.90695 10.3616,11.21959 -1.3324,-1.84381 -1.3094,-1.89354 0.2937,-0.63669 0.9565,0.74982 1.5178,1.7213 1.2474,2.15885 -0.2705,0.43754 0.8595,1.9325 2.511,3.32213 1.6514,1.38962 3.0027,2.91195 3.0027,3.38294 0,1.56549 8.6069,9.33112 9.4711,8.5453 0.4672,-0.42489 0.563,-0.27017 0.2128,0.34382 -1.2651,2.218 6.9416,7.38666 15.526,9.77837 2.9095,0.81063 8.1899,1.71578 11.7341,2.01144 9.5946,0.80039 10.556,2.12444 10.556,14.53766 0,8.98685 -0.2134,10.11743 -2.3357,12.37874 -1.9806,2.11043 -3.1204,2.45298 -7.5,2.25417 -28.528,-1.295 -77.7734,-1.64672 -98.1052,-0.70069 -23.9258,1.11326 -23.9423,1.1126 -26.25,-1.05535 -1.27,-1.19313 -2.3091,-2.81402 -2.3091,-3.60199 0,-0.95159 -0.5877,-1.20896 -1.75,-0.76644 -1.4032,0.53418 -1.5023,0.41665 -0.5,-0.59301 0.7358,-0.74127 1.25,-3.86394 1.25,-7.59137 0,-3.48266 0.652,-7.89266 1.4489,-9.8 1.3525,-3.23692 1.7521,-3.46788 6,-3.46788 3.4289,0 4.5511,-0.37927 4.5511,-1.53815 0,-2.27752 -7.4861,-13.64244 -8.3906,-12.73799 -0.4268,0.42688 -0.6853,0.32614 -0.5744,-0.22386 0.4645,-2.30228 -0.1018,-3.57964 -1.285,-2.89869 -0.6875,0.39564 -0.9273,0.36193 -0.5328,-0.0749 0.877,-0.97107 -9.138,-15.69341 -10.2204,-15.02443 -0.4241,0.26208 -0.7093,-0.1042 -0.6339,-0.81396 0.1998,-1.88103 -21.6643,-31.61982 -22.7525,-30.94723 -0.5057,0.31253 -0.6405,0.11686 -0.2995,-0.43483 0.3409,-0.55168 -0.152,-1.85871 -1.0955,-2.90451 -0.9435,-1.04579 -3.0087,-3.80605 -4.5893,-6.13391 -1.5806,-2.32786 -3.3376,-3.94583 -3.9045,-3.59549 -0.5669,0.35034 -0.7549,0.19078 -0.4179,-0.35456 0.701,-1.13417 -1.9401,-5.31749 -3.3571,-5.31749 -0.5747,0 -0.8441,15.17551 -0.6933,39.05761 l 0.2467,39.05761 2.5,1.94737 c 1.9598,1.52659 3.6585,1.86234 7.8617,1.55386 2.949,-0.21644 6.999,0.0882 9,0.67696 2.001,0.58877 3.9596,0.99401 4.3523,0.90053 0.3927,-0.0935 0.4287,0.57347 0.08,1.4821 -0.3487,0.90863 -0.22,1.39473 0.286,1.08024 0.5416,-0.33666 0.8098,3.19427 0.6522,8.58595 -0.507,17.34057 0.2775,16.89573 -27.3085,15.4847 -19.8553,-1.0156 -77.5535,-0.51376 -91.0002,0.7915 -6.331,0.61454 -6.6576,0.53524 -8.75,-2.12489 z"
     id="path4379"
     inkscape:connector-curvature="0" />
  <path
     style="fill:none;stroke:#000000;stroke-opacity:1"
     d="m -1022.9742,614.27248 c -3.4818,-1.50859 -4.3154,-4.29843 -4.3154,-14.44212 0,-8.518 0.2356,-9.75521 2.25,-11.81574 2.0786,-2.12618 3.088,-2.30152 13.25,-2.30152 8.0901,0 10.937,-0.32115 10.762,-1.21401 -0.1333,-0.68006 0.388,-0.9738 1.18517,-0.66786 3.3295,1.27764 3.6786,-5.74381 3.3622,-67.61813 -0.304,-59.4475 -0.3468,-60.58082 -2.4571,-65.1459 -2.15677,-4.66546 -11.03847,-12.8541 -13.94207,-12.8541 -0.7756,0 -1.4102,-0.34767 -1.4102,-0.7726 0,-0.42492 -1.6875,-1.639 -3.75,-2.69795 -2.0625,-1.05894 -4.7292,-2.78342 -5.926,-3.83217 -1.2482,-1.09387 -2.6997,-1.58311 -3.4045,-1.14754 -0.8409,0.51973 -0.9722,0.34457 -0.4161,-0.55522 0.4468,-0.72297 0.8124,-4.49613 0.8124,-8.38479 0,-6.23162 0.2789,-7.28971 2.3516,-8.92008 1.2934,-1.01739 2.0528,-2.33329 1.6876,-2.92423 -0.4114,-0.66577 -0.1894,-0.78112 0.5837,-0.30329 1.5104,0.93344 18.2669,-6.32042 17.493,-7.57265 -0.2946,-0.47662 0.076,-0.63173 0.8244,-0.34469 1.7991,0.69036 18.95577,-6.9773 17.99157,-8.04078 -0.4112,-0.45356 -0.2341,-0.53118 0.3936,-0.17249 1.0743,0.61386 9.0554,-2.36155 10.6727,-3.97884 0.4091,-0.40915 1.446,-0.84695 2.3041,-0.97289 0.8581,-0.12594 7.0325,-2.72163 13.721,-5.76819 13.7849,-6.27891 19.0196,-7.47338 24.6331,-5.62078 5.0014,1.65062 6.4756,5.08642 8.5856,20.00918 0.8943,6.325 1.7256,11.6034 1.8472,11.72978 0.469,0.48719 8.095,-8.137 8.095,-9.15461 0,-0.59134 0.4787,-1.07517 1.0638,-1.07517 1.473,0 12.4362,-7.63976 12.4362,-8.66622 0,-0.45858 0.3375,-0.73268 0.75,-0.60911 0.4125,0.12356 4.2822,-1.46452 8.5994,-3.52908 22.1446,-10.58996 52.2264,-12.56046 72.7964,-4.7685 6.9084,2.61692 15.653,8.21525 22.4676,14.38396 2.8124,2.5458 5.4721,4.30478 5.9104,3.90884 0.4383,-0.39594 0.4505,-0.12082 0.027,0.61137 -0.4793,0.82914 0.1685,2.33785 1.7175,4 1.3679,1.46781 3.0225,3.70858 3.6769,4.97951 0.6545,1.27092 1.5451,2.17092 1.9792,2 0.4341,-0.17093 3.2162,-2.52759 6.1823,-5.23705 2.9662,-2.70945 4.718,-4.5498 3.893,-4.08967 -0.8922,0.49759 -1.1623,0.46771 -0.6667,-0.0737 0.4584,-0.50068 1.1334,-0.91411 1.5,-0.91873 0.3667,-0.005 3.5917,-2.08649 7.1667,-4.62637 7.684,-5.45916 19.507,-11.70301 25.5,-13.46686 0.55,-0.16187 3.475,-1.07091 6.5,-2.02008 4.3466,-1.36387 9.7397,-1.76315 25.7176,-1.90406 11.1196,-0.0981 20.0127,0.1531 19.7624,0.55815 -0.4715,0.76287 8.013,3.44537 10.3367,3.26808 0.7241,-0.0553 1.0733,0.14284 0.776,0.4402 -0.2974,0.29736 1.5851,1.87281 4.1833,3.501 2.5982,1.62819 5.9068,4.07169 7.3525,5.42999 1.4456,1.3583 3.2456,2.56023 4,2.67094 0.7543,0.11071 1.5207,0.64142 1.7031,1.17935 0.1823,0.53794 2.8823,3.69304 6,7.01136 6.8675,7.30957 12.1541,13.4667 11.5627,13.4667 -0.2392,0 0.4164,1.6875 1.457,3.75 1.0406,2.0625 2.616,6.675 3.5008,10.25 3.4722,14.0287 3.9315,25.69747 3.1293,79.5 -0.4264,28.6 -0.8175,56.05 -0.869,61 -0.1453,13.95036 2.5638,16.46884 17.7868,16.53544 8.144,0.0356 11.692,1.15478 12.5689,3.96456 1.1841,3.79406 1.1074,17.98607 -0.109,20.18205 -0.7062,1.27487 -1.2134,2.58045 -1.1271,2.90128 0.2756,1.02484 -2.8685,1.14893 -19.732,0.77881 -26.9537,-0.59158 -66.3326,-0.41399 -84.2037,0.37973 -16.6926,0.74139 -16.7055,0.74028 -19.5,-1.66281 -2.7178,-2.33714 -2.7997,-2.70312 -2.9186,-13.03081 -0.067,-5.84437 0.083,-10.4211 0.3334,-10.17052 0.2505,0.25058 1.3181,-0.4069 2.3722,-1.46106 1.301,-1.301 3.313,-1.91667 6.2637,-1.91667 6.2039,0 8.8303,-2.59178 9.9233,-9.79247 0.4765,-3.13914 1.101,-31.72279 1.3877,-63.51922 0.5357,-59.38949 0.071,-70.36774 -3.2551,-76.9495 -2.1269,-4.2085 -5.4575,-7.82311 -6.573,-7.13366 -0.4837,0.29893 -0.7558,0.0152 -0.6047,-0.6306 0.5168,-2.20821 -9.1106,-7.96286 -13.5844,-8.11992 -7.8869,-0.27688 -11.165,0.27886 -16.3873,2.77819 -6.6133,3.165 -16.5095,11.14388 -15.6157,12.59021 0.3913,0.63306 0.208,0.79972 -0.4394,0.39961 -1.6138,-0.9974 -3.8915,3.01785 -5.6865,10.02453 -1.3605,5.3103 -1.5311,14.78006 -1.2899,71.58329 0.2319,54.61863 0.512,65.74522 1.6905,67.16468 1.1247,1.35479 2.8977,1.66199 8.7045,1.5083 8.0802,-0.21387 11.9727,1.41006 12.846,5.35921 0.9529,4.30908 1.0457,18.5585 0.1171,17.98119 -0.5095,-0.31673 -0.6262,0.19376 -0.2615,1.14405 0.4438,1.15642 0.2807,1.48251 -0.5,1 -0.7393,-0.45693 -0.9572,-0.19144 -0.6022,0.73378 0.7503,1.95509 -0.9281,2.10865 -18.7164,1.71244 -25.2787,-0.56306 -71.2179,-0.31827 -86.2797,0.45974 l -14.2798,0.7376 -2.4702,-2.47027 c -2.2989,-2.29917 -2.47,-3.16616 -2.47,-12.51575 0,-12.9474 0.8554,-14.04545 10.941,-14.04545 4.1679,0 7.226,-0.46125 7.6545,-1.15451 0.4721,-0.76393 0.2707,-0.88081 -0.5955,-0.34549 -0.8478,0.52397 -1.0671,0.41763 -0.6225,-0.30182 0.3776,-0.61096 1.2725,-0.88599 1.9886,-0.61118 0.8521,0.32698 1.9518,-1.32969 3.182,-4.79367 1.7334,-4.88102 1.9076,-9.53848 2.237,-59.79333 0.3334,-50.8739 -0.4518,-75.07145 -2.5441,-78.40038 -0.3801,-0.60479 -0.5615,-1.88712 -0.4032,-2.84962 0.1584,-0.9625 -0.2169,-1.75 -0.834,-1.75 -0.617,0 -0.8733,-0.40219 -0.5695,-0.89377 0.7882,-1.27532 -1.8471,-7.14181 -4.5972,-10.23387 -3.4401,-3.86781 -5.9804,-4.86152 -15.1075,-5.90975 -6.6361,-0.76214 -9.2819,-0.64059 -13.6644,0.62777 -14.6215,4.23172 -23.4957,15.49015 -26.0302,33.02359 -1.3059,9.03431 -1.3056,111.70493 3e-4,120.88603 1.3968,9.81912 3.1494,11.8735 10.6642,12.5 8.7716,0.73127 9.3005,1.45244 9.3005,12.68146 0,7.00252 0.3047,9.24824 1.1814,8.70641 0.6498,-0.40159 -0.049,0.88276 -1.5524,2.85411 -1.5036,1.97136 -3.4337,3.85282 -4.289,4.18104 -0.8553,0.32822 -12.1942,0.0876 -25.1976,-0.53465 -21.4514,-1.02655 -66.7667,-0.69365 -86.48697,0.63536 -3.9355,0.26522 -8.1385,0.0563 -9.34,-0.46435 z"
     id="path4377"
     inkscape:connector-curvature="0" />
  <path
     style="fill:none;stroke:#000000;stroke-opacity:1"
     d="m -564.93913,614.22028 c -3.1981,-1.29203 -4.6639,-7.03281 -4.1338,-16.1904 0.6191,-10.69409 1.1633,-11.15681 14.0202,-11.92112 6.2538,-0.37177 10.313,-1.04524 10.5479,-1.75 0.21,-0.63011 1.0194,-1.14566 1.7985,-1.14566 1.2075,0 1.4167,-9.45645 1.4167,-64.03984 0,-62.46794 -0.05,-64.13791 -2.0383,-68.03532 -1.1211,-2.19751 -2.466,-3.73121 -2.9886,-3.40822 -0.5226,0.32299 -0.7046,-0.0529 -0.4043,-0.83525 0.9325,-2.43004 -13.4485,-12.49177 -15.7878,-11.04601 -0.6422,0.39689 -0.8043,0.21137 -0.3946,-0.45153 0.4161,-0.67329 -0.2536,-1.36338 -1.6675,-1.71826 -3.6311,-0.91132 -5.7189,-5.40125 -5.7189,-12.29843 0,-4.40134 0.4715,-6.49767 1.75,-7.78147 1.6801,-1.68697 23.3358,-12.37558 28.0145,-13.82711 1.2724,-0.39476 1.9714,-1.17682 1.5955,-1.78506 -0.368,-0.59539 -0.2116,-0.7998 0.3475,-0.45426 1.4659,0.90598 9.3566,-2.40651 8.61,-3.61446 -0.3446,-0.55759 -0.1367,-0.71105 0.4621,-0.34102 1.0562,0.6528 2.759,-0.0336 19.7204,-7.94974 4.4,-2.05354 8.225,-3.77453 8.5,-3.82443 0.275,-0.0499 3.425,-1.41619 7,-3.03621 9.1477,-4.1453 16.6621,-4.2039 20.8834,-0.16284 1.6607,1.5898 3.3183,4.2898 3.6835,6 0.3652,1.7102 1.0868,3.63533 1.6035,4.27807 0.5167,0.64273 1.1057,3.20944 1.3089,5.70379 0.2033,2.49436 0.7574,5.22821 1.2315,6.07523 0.7748,1.38461 1.0869,1.38237 3.0922,-0.0222 1.2268,-0.85924 1.9645,-1.99261 1.6394,-2.51861 -0.3251,-0.52599 -0.2201,-0.8496 0.2333,-0.71912 0.4534,0.13047 1.8717,-0.34289 3.1519,-1.05192 1.5722,-0.87081 2.1209,-1.83214 1.6907,-2.96245 -0.4943,-1.29881 -0.3679,-1.40646 0.5648,-0.48098 0.9313,0.92415 1.9005,0.67811 4.3092,-1.09391 6.1431,-4.51929 16.609,-9.6578 25.7739,-12.65436 7.7217,-2.52465 11.5792,-3.15278 22.3338,-3.63669 13.7872,-0.62037 29.1628,0.68269 38.523,3.26475 3.0123,0.83099 6.1629,1.67181 7.0013,1.8685 3.9399,0.92433 14.1039,7.99538 19.952,13.88043 3.5619,3.58451 6.894,6.25913 7.4045,5.94361 0.5105,-0.31552 0.6071,-0.0542 0.2147,0.58083 -0.3924,0.63498 -0.237,1.15451 0.3455,1.15451 0.5824,0 1.059,0.675 1.059,1.5 0,0.825 0.3762,1.5 0.8361,1.5 0.4598,0 2.6938,3.7125 4.9645,8.25 6.6302,13.24945 7.1973,18.68541 7.2118,69.13099 0.01,23.71546 -0.513,54.81901 -1.1553,69.11901 -1.5549,34.62346 -1.6256,34.47957 16.958,34.52224 13.0768,0.03 14.2903,0.93936 14.9489,11.20174 0.2901,4.52052 -2e-4,8.96182 -0.7305,11.17457 -2.2097,6.69542 -1.7712,6.63255 -37.4551,5.37045 -23.8145,-0.84229 -39.4298,-0.8392 -61.4848,0.0122 -26.0042,1.00382 -29.8412,0.95901 -31.873,-0.37228 -3.4579,-2.26572 -4.4502,-6.02483 -3.994,-15.1304 0.543,-10.83944 1.7557,-12.27848 10.3466,-12.27848 3.4448,0 7.0095,-0.28637 7.9216,-0.63638 4.9714,-1.90772 6.4955,-17.71061 7.1717,-74.36362 0.5566,-46.63828 -0.026,-62.16119 -2.6767,-71.2756 -0.6734,-2.31559 -1.5235,-3.5126 -2.1984,-3.09549 -0.6502,0.40185 -0.8173,0.22209 -0.4085,-0.43937 1.7083,-2.76411 -7.0242,-12.02158 -14.8829,-15.77772 -6.0965,-2.91385 -20.2447,-2.66919 -27.2365,0.47101 -2.9648,1.33158 -4.9584,2.80178 -4.5955,3.38901 0.3526,0.57045 0.1865,0.7563 -0.3689,0.413 -1.698,-1.04938 -9.5271,6.33537 -8.971,8.46178 0.267,1.02088 0.1136,1.62637 -0.3408,1.34555 -0.4543,-0.28082 -1.2905,0.95606 -1.8581,2.74862 -2.9093,9.18867 -3.2853,17.93029 -3.4548,80.32168 -0.1687,62.12151 -0.1116,64.2837 1.752,66.34946 1.298,1.43885 2.1542,1.76664 2.625,1.00494 0.5079,-0.82189 0.8853,-0.82834 1.3826,-0.0236 0.3762,0.60872 2.604,1.10676 4.9507,1.10676 3.1669,0 4.8271,0.59655 6.441,2.31445 1.9366,2.06146 2.1708,3.40051 2.1425,12.25 -0.047,14.6639 0.9055,14.04766 -20.766,13.43555 -24.2821,-0.68585 -68.7694,-0.57126 -85.7022,0.22076 -7.7,0.36016 -14.9673,0.26405 -16.1495,-0.21358 z"
     id="path4375"
     inkscape:connector-curvature="0" />
  <path
     style="fill:#1f7b47;fill-opacity:1;stroke:#000000;stroke-width:0.86093175;stroke-opacity:1"
     d="m -2150.0005,619.56251 c -11.3014,-7.13413 -5.8983,-30.29804 10.421,-24.47106 19.4326,2.94473 14.632,-19.53356 15.3799,-31.84263 -0.038,-67.82334 0.4988,-135.67563 -1.1466,-203.47859 -0.6717,-14.85424 -11.3021,-22.68904 -26.4807,-29.16477 -15.1786,-6.47574 -4.5105,-22.08752 14.4379,-25.50981 18.9484,-3.42229 46.0591,-19.664 69.3917,-28.65894 8.2253,-3.22545 15.1165,4.78539 12.4968,12.41596 -1.1471,49.15153 -0.9993,98.33111 -0.9235,147.4935 11.9917,-12.2959 28.4302,-20.15839 45.6855,-21.82956 31.0451,-5.46672 65.3402,11.49786 77.0449,41.30292 5.6602,20.20648 2.533,41.67823 3.4949,62.43282 0.5738,24.96567 -1.0421,50.13504 1.1761,74.97944 10.3414,3.43618 31.4566,-2.28243 26.7254,16.13257 -0.5531,17.79965 -17.3971,8.84621 -35.8569,9.71582 -18.4598,0.86961 -50.3091,-0.24845 -75.4449,0.40732 -10.7088,-6.53235 -6.734,-30.39731 9.649,-25.0114 10.1902,-8.86649 3.7971,-26.53534 5.8579,-39.08863 -0.4794,-28.78441 1.948,-57.87268 -2.3157,-86.42914 -1.872,-16.72839 -27.6742,-19.54678 -36.6918,-17.32906 -9.0175,2.21772 -20.1602,3.63916 -18.8612,29.51958 1.299,25.88039 -0.7411,73.34507 0.854,109.95704 0.7506,9.76367 17.416,-1.60494 17.8372,9.58692 5.5953,16.77301 -8.2069,22.10846 -22.2345,18.49338 -30.1574,-0.24308 -60.3665,-0.42409 -90.4964,0.37632 z"
     id="path4373"
     inkscape:connector-curvature="0"
     sodipodi:nodetypes="cccczzcccccccczcccczzcccc" />
  <path
     style="fill:none;stroke:#000000;stroke-opacity:1"
     d="m -1209.8188,606.28372 c -3.8167,-1.57835 -4.5254,-3.5927 -4.8156,-13.68726 -0.2613,-9.09238 -0.1111,-10.00743 1.9883,-12.10684 2.3679,-2.36785 3.0912,-2.47666 15.362,-2.31121 7.9394,0.10705 13.1687,-0.96676 15.2945,-3.1407 4.3057,-4.40319 4.2116,-1.18816 4.0924,-139.81915 -0.1166,-135.55324 -0.3166,-142.78309 -4.1176,-148.81423 -3.1147,-4.94209 -7.4058,-8.36178 -14.6157,-11.64742 -3.9345,-1.793 -7.4977,-3.30171 -7.9182,-3.35269 -3.7621,-0.45606 -12.3521,-4.07508 -14.3029,-6.02594 -2.1847,-2.18465 -2.4325,-3.27541 -2.4325,-10.70719 0,-8.01238 0.097,-8.35683 3.0767,-10.86364 1.6922,-1.42389 3.994,-2.58889 5.115,-2.58889 3.7796,0 30.5651,-7.60191 53.3083,-15.12925 16.5443,-5.47569 24.1189,-8.29376 37.5755,-13.97967 13.156,-5.55886 17.4501,-6.06337 21.555,-2.53247 l 2.7421,2.35862 -0.2181,167.39138 c -0.2002,153.72515 0.2216,188.66832 2.3426,194.06415 1.3645,3.47095 6.9345,4.94148 18.2678,4.8228 5.9043,-0.0618 11.2801,-0.0861 11.9461,-0.054 0.6661,0.0321 2.1286,1.04328 3.25,2.24699 1.7661,1.89559 2.039,3.50804 2.039,12.04546 0,9.18719 -0.1703,10.02717 -2.5062,12.3631 -2.4363,2.43625 -2.7503,2.48393 -11.25,1.70814 -10.6955,-0.9762 -113.4365,-1.04987 -125.2438,-0.0898 -4.675,0.38013 -9.4156,0.3125 -10.5347,-0.1503 z"
     id="path4371"
     inkscape:connector-curvature="0" />
  <path
     style="fill:none;stroke:#000000;stroke-opacity:1"
     d="m -404.74693,584.2822 c -0.3164,-0.512 -0.193,-1.1672 0.2743,-1.45601 0.4673,-0.28881 0.8497,0.13009 0.8497,0.9309 0,1.68617 -0.3154,1.83349 -1.124,0.52511 z"
     id="path4369"
     inkscape:connector-curvature="0" />
  <path
     style="fill:none;stroke:#000000;stroke-opacity:1"
     d="m -1291.2896,569.83554 c 0,-0.20765 0.7875,-0.99515 1.75,-1.75 1.586,-1.24387 1.6214,-1.2085 0.3775,0.37756 -1.3064,1.66575 -2.1275,2.19548 -2.1275,1.37244 z"
     id="path4367"
     inkscape:connector-curvature="0" />
  <path
     style="fill:none;stroke:#000000;stroke-opacity:1"
     d="m -1271.4172,412.4631 c -1.2439,-1.58606 -1.2085,-1.62143 0.3776,-0.37756 0.9625,0.75485 1.75,1.54235 1.75,1.75 0,0.82304 -0.8212,0.29331 -2.1276,-1.37244 z"
     id="path4365"
     inkscape:connector-curvature="0" />
  <path
     style="fill:none;stroke:#000000;stroke-opacity:1"
     d="m -319.78963,408.2131 c -0.3399,-0.55 -0.1415,-1 0.441,-1 0.5824,0 1.059,0.45 1.059,1 0,0.55 -0.1984,1 -0.441,1 -0.2425,0 -0.7191,-0.45 -1.059,-1 z"
     id="path4363"
     inkscape:connector-curvature="0" />
  <path
     style="fill:none;stroke:#000000;stroke-opacity:1"
     d="m -655.36533,399.4631 -2.4243,-2.75 2.75,2.42431 c 1.5125,1.33338 2.75,2.57088 2.75,2.75 0,0.78428 -0.8098,0.14598 -3.0757,-2.42431 z"
     id="path4361"
     inkscape:connector-curvature="0" />
  <path
     style="fill:#ebeb72;fill-opacity:1;stroke:#000000;stroke-width:0.97682726;stroke-opacity:1"
     d="m -1816.7802,357.39845 c -12.2894,-3.30643 -24.2388,-11.28573 -27.4394,-24.00573 -5.7878,-13.02365 -1.8659,-29.15912 5.5914,-39.52435 7.4573,-10.36524 15.6266,-11.06609 23.4217,-13.6477 14.621,-3.67648 32.3683,-0.6912 42.6278,7.47419 10.2594,8.16538 14.1265,20.68572 12.0172,32.96985 -1.394,13.26587 -9.8466,25.57582 -21.2542,31.99433 -10.6073,5.42927 -23.2995,7.45273 -34.9645,4.73941 z m -52.7441,263.44975 c -5.8875,-11.00466 -2.8389,-30.9255 13.8589,-26.46133 12.425,2.29527 24.1487,-2.94438 20.665,-16.72249 0.033,-39.01944 -1.9127,-78.10892 -4.0108,-117.07724 -1.4769,-7.80348 -6.3275,-14.31024 -16.9829,-16.64434 -10.6555,-2.33411 -18.7842,-23.10667 -5.2111,-26.88957 28.3452,-8.53115 56.2824,-18.44539 84.7278,-26.61971 10.4044,-3.55087 21.3409,-1.53834 17.1626,11.53798 0.6249,61.87974 -0.2372,123.78644 1.3452,185.6486 2.1098,14.26447 23.5597,1.46479 31.0111,11.02923 4.1443,12.34324 0.5523,29.40784 -16.0851,24.2705 -40.5684,-1.67711 -81.1921,-1.115 -121.76,0.2341 -1.8389,0.15913 -3.7541,-0.70993 -4.7207,-2.30573 z"
     id="path4359"
     inkscape:connector-curvature="0"
     sodipodi:nodetypes="cczczccccccczcccccccc" />
  <path
     style="fill:#fd031e;stroke:#000000;stroke-width:2.34229517;stroke-opacity:1;fill-opacity:1"
     d="m 1086.5469,434.32505 c -39.9842,-10.17259 -66.47,-39.06133 -71.4219,-80.33054 -6.8205,-41.87467 17.9669,-82.26927 56.5148,-97.69075 39.7581,-15.28581 89.7787,-15.95912 122.3468,15.10764 51.7155,44.10586 27.4967,135.81976 -34.5275,157.26025 -22.5995,9.47965 -49.074,10.02449 -72.9122,5.6534 z M 915.02049,1402.8839 c -47.73505,-3.3105 -101.63494,-41.1419 -91.81206,-94.2565 6.2119,-44.6165 53.15051,-86.3378 98.82891,-66.3024 36.89515,10.4588 32.90985,46.9117 71.14601,70.3623 38.23615,23.4506 37.16215,-66.1631 43.11315,-95.4605 4.5708,-169.0412 -6.0189,-394.04258 -3.3918,-507.28996 2.6271,-113.24738 -64.82267,-51.93347 -79.77789,-89.12811 -8.55482,-46.58173 49.49329,-51.14152 85.23479,-59.69524 35.7415,-8.55372 75.3036,-25.04703 105.8148,-35.87251 30.5112,-10.82548 73.8909,-30.97371 84.8346,2.60431 -7.1993,179.17913 -2.3353,358.73706 -9.3052,537.87721 -5.6359,73.1619 -8.3652,151.9608 -54.9151,212.9351 -16.4609,28.6617 -38.7477,46.6336 -65.9001,67.1387 -51.6839,40.2665 -117.81724,64.6539 -183.87011,57.0876 z"
     id="path4357"
     inkscape:connector-curvature="0"
     sodipodi:nodetypes="ccccccccczczczzccccc" />
  <path
     style="fill:#2d36b9;fill-opacity:1;stroke:#000000;stroke-width:1.00363624;stroke-opacity:1"
     d="m -413.84983,-215.87833 c -38.70466,-0.64368 -83.03674,14.38973 -99.81821,52.18375 -10.85703,26.55407 -6.95585,58.57194 7.84111,82.799822 5.25382,11.518885 24.48782,21.472355 26.17479,29.172439 -23.13269,12.20802 -45.69231,36.322912 -40.14219,64.508394 0.41951,17.056154 22.66497,30.383693 28.91386,36.256293 -21.05697,10.66712 -44.4205,26.86327 -47.36329,52.322572 -2.77334,19.17291 9.35541,36.692 25.30971,47.09046 15.95439,10.39856 34.49161,12.33435 52.29026,16.22525 51.50735,6.4952 107.48749,0.78187 151.11872,-29.42542 25.23656,-19.10694 41.77857,-52.628012 32.07835,-84.194182 -8.09729,-29.619889 -36.19447,-50.51187295 -65.39101,-56.2317499 -36.21058,-6.9294671 -73.24438,1.268083 -109.45153,-5.1582461 -20.53511,-5.295485 -3.1139,-35.367103 13.21056,-30.866065 37.33404,3.870748 79.54791,-3.456568 104.80598,-33.663648 21.0687,-23.609509 19.83645,-57.280319 14.36363,-86.371129 17.22696,2.25421 30.71324,26.04273 49.3508,12.06879 19.79875,-12.61905 15.39963,-47.80503 -7.8891,-53.93456 -21.2209,-5.965 -41.45577,5.41547 -60.00078,14.30337 -20.31716,-18.49296 -48.14495,-27.55449 -75.40166,-27.08614 z m -0.52298,29.10995 c 16.92931,-0.63502 24.42124,11.67918 24.36181,32.3359 -0.0592,20.65672 2.04154,58.960074 -12.61381,78.528342 -14.65536,19.568268 -38.76721,0.991402 -41.67083,-17.752488 -5.15337,-20.549334 -3.09769,-42.402744 0.76078,-63.010524 3.39909,-13.80781 13.26676,-29.95146 29.16205,-30.10123 z m 14.14745,245.646638 c 19.91427,-0.61638 44.71429,1.39286 55.82876,20.59039 9.04518,17.27869 0.24975,39.500052 -17.47847,47.020132 -22.81094,12.73391 -50.86521,13.03738 -75.6752,7.02131 -20.46115,-5.85805 -39.79416,-25.53099 -34.25682,-48.256222 3.39212,-20.40328 31.12018,-24.41073 44.11454,-25.46065 12.99425,-1.04991 18.26605,-1.19785 27.46719,-0.91496 z"
     id="path4355"
     inkscape:connector-curvature="0"
     sodipodi:nodetypes="ccccccczccccccccccccczzcccccccczc" />
  <path
     style="fill:#b92d88;fill-opacity:1;stroke:#000000;stroke-width:1.06945717;stroke-opacity:1"
     d="m -806.5456,152.20816 c -2.62628,-17.25804 5.29207,-30.87037 25.63397,-29.80311 20.34182,1.06735 10.90157,-16.12476 11.60505,-45.515053 0.70347,-29.390386 0.0757,-86.7457455 -2.19786,-130.061834 -17.07162,0.142467 -46.71555,2.795149 -38.05384,-23.471757 0.87668,-20.708278 23.41229,-18.166302 37.75025,-17.116493 2.62176,-14.786883 0.56147,-26.645193 4.0865,-48.261173 3.52503,-21.61599 18.7274,-57.4272 31.97068,-75.22962 13.24328,-17.80251 13.8475,-17.18094 35.63541,-32.73214 21.78781,-15.5511 70.9989,-27.31514 107.23981,-18.32926 19.80583,4.96041 36.18201,23.02118 32.93084,44.27818 -1.83426,23.25921 -29.52012,29.99959 -49.53785,27.13796 -20.01763,-2.86163 -24.7823,-20.29537 -36.47977,-31.73246 -21.4798,-15.24088 -38.59103,10.93508 -36.98539,37.16635 1.60574,26.23127 -0.71935,65.34886 -1.0366,98.023568 21.40861,0.179308 42.84621,-0.963663 64.23045,0.508839 12.57258,11.471441 -3.86213,31.059462 -15.25823,39.260986 -13.23562,9.525371 -37.87269,-3.981055 -48.8654,2.322597 0.25604,55.1822469 -0.75157,110.377882 0.8056,165.54849 5.7167,21.05305 43.54017,-3.79066 42.41512,23.19107 3.18312,21.69595 -19.86253,16.52207 -33.52444,16.24636 -43.80434,-0.19205 -87.74108,1.48294 -131.45973,-0.86699 0,0 -0.60302,-0.37634 -0.90457,-0.56451 z"
     id="path4349"
     inkscape:connector-curvature="0"
     sodipodi:nodetypes="czzccczzzcczczccacccccc" />
  <path
     style="fill:#1fbad0;fill-opacity:1;fill-rule:nonzero;stroke:#000000;stroke-width:0.96572989;stroke-opacity:1"
     d="m -1791.8349,-225.34922 c -1.9029,-0.0317 -4.1361,0.33752 -6.7524,1.18449 -21.4362,9.54755 -42.6204,19.7687 -65.0621,26.91633 -12.0432,6.46641 -37.9108,4.80627 -32.8087,25.00668 9.2337,11.68514 36.5395,9.31585 34.4011,31.8362 1.5641,87.113472 -3.3018,174.77424 -1.7304,262.17273 0.2614,14.54232 -6.3692,35.19357 8.3982,42.81811 13.288,7.48981 23.3428,-8.44354 35.2451,-10.84295 33.1636,12.75833 71.1414,16.62664 105.305,5.4564 12.6336,-4.95388 24.7215,-12.67165 35.5624,-21.21617 8.7967,-6.9333 17.2082,-14.75612 23.481,-24.03535 10.8276,-16.01697 20.2748,-33.993031 23.3935,-53.073194 3.8881,-23.787462 2.8859,-49.244603 -6.5803,-72.009187 -6.094,-15.525577 -18.0436,-31.531467 -29.9352,-40.946527 -19.7763,-15.676234 -45.7982,-22.502224 -70.7076,-17.989134 -16.4474,1.62184 -32.0647,7.237104 -45.7837,16.258324 -1.0198,-44.070784 1.2406,-88.225002 2.9024,-132.284902 -0.2441,-12.13989 6.166,-38.9934 -9.3283,-39.25185 z m 35.8881,199.156182 c 5.6737,0.06689 10.9722,2.401329 16.1157,4.504623 11.8923,5.821248 17.6431,18.2439536 23.4382,30.1507226 9.1801,24.0124534 9.7243,50.2621014 7.4842,75.4291694 -1.0235,11.499066 -4.2176,22.987273 -9.4527,33.318343 -5,10.09124 -14.9038,16.98154 -25.8427,19.16139 -13.6969,3.26755 -23.6744,-1.5695 -33.4978,-14.48527 -6.3538,-8.63612 -6.756,-19.6453 -7.1082,-29.92717 -0.8516,-36.893703 -0.7031,-73.803138 -1.0504,-110.704318 8.7832,-4.282388 18.251,-7.505901 28.1407,-7.392369 0.5952,-0.04435 1.1862,-0.06203 1.773,-0.05516 z"
     id="path4347"
     inkscape:connector-curvature="0"
     sodipodi:nodetypes="sccccscccssscccccssccsccccccs" />
  <path
     style="fill:#1fd02b;fill-opacity:1;stroke:#000000;stroke-width:1.09331393;stroke-opacity:1"
     d="m -1510.077,159.17936 c -29.879,-2.70729 -60.6917,-14.52408 -78.6662,-39.68239 -22.3451,-26.040289 -29.7277,-61.862806 -26.346,-95.383901 1.0044,-19.3494409 6.2255,-38.252735 13.2513,-56.159413 7.9871,-15.909277 17.7208,-31.0644 31.602,-42.512709 10.2604,-8.702934 21.2417,-17.252607 33.7231,-22.528356 32.7238,-14.666551 70.6719,-14.218371 104.5931,-4.011121 15.8243,5.062011 30.8139,14.325166 39.4065,28.916728 11.0993,15.269744 10.3301,41.346688 -7.0816,51.603456 -24.8579,13.4913806 -58.9086,-1.44154 -66.9389,-28.288077 -2.6718,-12.65247 -12.4313,-25.275651 -26.5948,-24.635933 -15.1895,-0.01494 -25.2546,14.021721 -30.745,26.568447 -7.4349,20.429529 -4.3297,42.6129343 -4.1046,63.844612 1.773,26.496945 10.24,53.666112 28.3565,73.534018 19.5098,18.887059 51.3756,23.882199 73.851,12.951119 11.6537,-5.667774 23.1362,-17.38816 37.3831,-15.05147 18.5719,4.776434 9.9116,27.1854 0.973,34.34659 -11.9437,9.56863 -23.5046,18.00142 -36.9374,23.90429 -21.9468,7.52721 -44.6551,13.85859 -68.0918,13.16882 -5.8823,0.0169 -11.764,-0.1995 -17.6333,-0.58471 z"
     id="path4339"
     inkscape:connector-curvature="0"
     sodipodi:nodetypes="ccccccccccccccscsccc" />
  <path
     style="fill:#efec26;fill-opacity:1;stroke:#000000;stroke-width:0.97054023;stroke-opacity:1"
     d="m -1142.9038,-250.71027 c -13.7044,-0.13367 -30.0977,7.0755 -43.7995,9.03138 -18.3688,2.62208 -43.2233,-5.65532 -54.1744,12.79799 -5.7557,23.54091 30.5548,17.46751 35.7161,35.92315 2.7536,29.9874 2.0356,64.8783 2.547,90.19223 0.5114,25.313918 -3.4816,10.536218 -26.7356,9.245298 -23.2538,-1.29093 -71.0471,9.4712 -92.6253,37.31053 -26.998,28.3486 -35.734,69.273994 -32.5782,107.33779 -0.3154,20.370476 7.6631,39.555745 20.5105,55.140862 15.9069,17.0926 34.7812,35.88739 59.4738,37.61447 25.5442,1.69384 54.0198,-0.10688 72.8236,-17.57337 18.8037,-17.46649 10.2778,16.98879 27.2042,16.77312 18.0273,-3.39012 35.8442,-8.28083 53.638,-12.86644 12.7988,-3.69496 36.6207,-3.57413 31.0339,-23.48226 -5.3878,-16.851715 -33.8611,-0.0273 -35.5976,-21.109082 -2.1435,-92.5659205 0.1813,-222.659828 0.3324,-277.742108 0.1511,-55.08227 11.626,-40.73426 -1.2527,-52.67702 -4.6131,-4.27781 -10.2869,-5.85577 -16.5162,-5.91654 z m -97.7277,185.899318 c 14.942,-0.0144 31.8555,3.54905 36.1778,24.98963 4.3223,21.440569 2.2156,57.673145 2.7917,86.517195 0.3914,18.277516 6.1787,45.4672 -15.5873,53.826647 -8.3626,1.90096 -17.3577,0.55582 -24.8734,-3.542694 -23.8481,-15.804492 -33.6548,-45.740938 -36.5111,-72.99591 -1.9722,-27.9026375 -2.3728,-61.726938 20.2258,-82.081908 5.2758,-4.69007 11.4677,-6.70692 17.7765,-6.71296 z"
     id="path4337"
     inkscape:connector-curvature="0"
     sodipodi:nodetypes="ssccssccccsccccsssszcccccs" />
  <path
     style="fill:#ef4426;fill-opacity:1;stroke:#000000;stroke-width:1.08777702;stroke-opacity:1"
     d="m -958.04356,-118.57336 c -33.09358,-0.34483 -67.06944,11.26907 -91.14294,34.302979 -47.9507,53.50493 -51.5703,143.209464 -3.4591,197.787871 24.3575,28.55009 64.59226,37.17346 100.58773,34.38354 26.74803,-1.33067 53.01838,-10.96301 73.42955,-28.45893 12.78126,-11.16098 24.9753,-24.45171 30.58208,-40.708612 4.63702,-13.454706 -11.72006,-21.542756 -22.62396,-16.559711 -14.06653,3.176143 -16.16476,20.294608 -30.2047,23.730299 -33.12527,15.430714 -87.68549,-0.219354 -97.0037,-25.780023 -9.3181,-25.56069 -2.7125,-57.8067962 -2.7125,-57.8067962 0.2935,-8.723496 11.03663,-6.860322 33.96224,-7.707262 22.92563,-0.84694 74.10717,4.962527 91.53193,0.21073 17.42476,-4.751806 14.95192,-24.6332688 10.25597,-38.5324888 -4.69593,-13.899229 -10.97076,-28.117744 -21.93204,-40.014307 -19.15373,-23.006959 -40.23742,-36.353649 -69.83694,-34.836229 l -0.72036,-0.006 c -0.11889,-8.3e-4 -0.47549,-0.004 -0.71326,-0.006 z m -5.76448,33.193609 c 17.13061,1.90066 39.33478,24.34562 37.25811,40.258426 -1.82908,15.782771 -29.96754,11.29573 -40.62887,12.459566 -10.66132,1.163828 -30.29237,3.039327 -32.26265,-9.434908 -1.97015,-12.474234 6.26693,-22.386348 12.70552,-31.598826 5.4216,-7.043567 13.82271,-12.117268 22.92789,-11.684258 z"
     id="path4333"
     inkscape:connector-curvature="0"
     sodipodi:nodetypes="cccccccczszzzccsccczzcc" />
  <path
     style="opacity:0.8;fill:#800080;fill-opacity:1;stroke:#000000;stroke-width:1.15278149;stroke-opacity:1"
     d="m -2042.4311,-105.32411 c -26.8313,-0.13495 -55.193,7.372899 -75.9851,15.686929 -8.6445,3.63148 -17.2025,7.742481 -25.3655,12.850751 -9.5032,5.94699 -20.0345,10.869057 -27.3139,20.611147 -6.3339,8.47677 -9.5905,16.965919 -12.8012,31.004605 -3.2107,14.038682 -1.4799,32.6622378 14.3496,38.143263 15.8297,5.481024 47.5313,-5.7811012 56.0046,-18.3126642 5.0463,-7.5051668 -4.1277,-36.7339878 4.3677,-49.3276838 6.2671,-9.29039 19.0246,-10.22984 27.9332,-9.79561 8.9085,0.43422 20.3554,0.94038 24.9848,12.3192 4.6294,11.378819 5.2571,26.443643 5.5777,42.4846608 0.3206,16.041026 -19.3466,20.2595762 -29.4187,26.0954232 -17.9594,10.405826 -40.7417,20.097561 -55.2438,27.143869 -14.5021,7.046292 -20.3431,12.108487 -28.5538,21.509255 -4.6562,5.330886 -8.9654,11.738176 -11.1955,19.159134 -5.1388,17.100911 -7.1398,36.827961 -3.8916,54.653151 2.0035,10.99458 7.0385,21.6589 13.8261,28.9929 5.0341,5.43946 11.8494,8.2797 18.4073,9.46644 22.537,4.0784 52.0289,-0.84114 67.9459,-8.7888 15.9169,-7.94766 20.7888,-7.91531 29.5877,-17.17327 8.799,-9.25795 13.8014,2.87621 19.293,7.84676 9.1159,8.25089 12.6113,12.5015 20.1945,14.37368 25.5498,6.30781 61.6055,2.54501 77.47,-12.50346 15.8647,-15.04847 22.0688,-22.17647 20.342,-35.7723 -1.7268,-13.59583 -22.1837,-15.83834 -28.4907,-5.10693 -6.307,10.73142 -17.721,28.15125 -19.254,-3.8723 -1.5329,-32.023547 -2.2108,-116.7207262 -3.0276,-145.285208 -2.2122,-58.573863 -39.233,-76.199182 -79.7427,-76.402942 z m -8.3091,142.683005 c -0.176,22.235257 -0.1803,77.008485 -0.1803,77.008485 0,0 -1.9161,3.26718 -2.7161,4.32136 -0.8001,1.05418 -4.8749,5.1928 -8.0891,7.4154 -3.2142,2.2226 -7.0964,3.725 -10.6018,3.9629 -3.5054,0.23788 -6.1051,-0.83631 -8.6945,-2.18938 -2.5895,-1.35308 -6.7152,-5.96537 -9.8081,-11.07072 -3.0929,-5.10534 -4.6288,-8.91601 -4.5514,-18.611394 0.096,-6.406446 2.0551,-17.587037 4.3304,-23.481659 6.911,-17.447222 24.8361,-33.800954 40.3109,-37.354992 z"
     id="path4343"
     inkscape:connector-curvature="0" />
  <path
     style="fill:none;stroke:#000000;stroke-opacity:1"
     d="m -675.83073,-193.85342 c -0.3626,-0.58659 -0.4447,-1.281 -0.1826,-1.54312 0.2622,-0.26213 0.7431,0.21781 1.0688,1.06653 0.6762,1.7621 0.1,2.07205 -0.8862,0.47659 z"
     id="path3515"
     inkscape:connector-curvature="0" />
</svg>
