<?xml version="1.0" encoding="UTF-8" standalone="no"?>
<svg
   xmlns:dc="http://purl.org/dc/elements/1.1/"
   xmlns:cc="http://web.resource.org/cc/"
   xmlns:rdf="http://www.w3.org/1999/02/22-rdf-syntax-ns#"
   xmlns:svg="http://www.w3.org/2000/svg"
   xmlns="http://www.w3.org/2000/svg"
   xmlns:sodipodi="http://sodipodi.sourceforge.net/DTD/sodipodi-0.dtd"
   xmlns:inkscape="http://www.inkscape.org/namespaces/inkscape"
   width="4000"
   height="2300"
   viewBox="0 -410 3080 1900"
   id="svg2"
   sodipodi:version="0.32"
   inkscape:version="0.45.1"
   sodipodi:docname="cirillico.svg"
   inkscape:output_extension="org.inkscape.output.svg.inkscape"
   sodipodi:docbase="C:\Documents and Settings\Flanker\Desktop"
   version="1.0">
  <metadata
     id="metadata15">
    <rdf:RDF>
      <cc:Work
         rdf:about="">
        <dc:format>image/svg+xml</dc:format>
        <dc:type
           rdf:resource="http://purl.org/dc/dcmitype/StillImage" />
      </cc:Work>
    </rdf:RDF>
  </metadata>
  <defs
     id="defs13" />
  <sodipodi:namedview
     inkscape:window-height="1005"
     inkscape:window-width="1280"
     inkscape:pageshadow="2"
     inkscape:pageopacity="0.0"
     guidetolerance="10.0"
     gridtolerance="10.0"
     objecttolerance="10.0"
     borderopacity="1.0"
     bordercolor="#666666"
     pagecolor="#ffffff"
     id="base"
     inkscape:zoom="0.14104919"
     inkscape:cx="3415.4097"
     inkscape:cy="278.58218"
     inkscape:window-x="-4"
     inkscape:window-y="-4"
     inkscape:current-layer="svg2"
     width="4000px"
     height="2300px"
     inkscape:showpageshadow="false" />
  <path
     id="path3164"
     style="color:#000000;fill:#f9f9f9;fill-opacity:1;fill-rule:evenodd;stroke:#b3b3b3;stroke-width:12.39130402;stroke-linecap:round;stroke-linejoin:round;stroke-miterlimit:4;stroke-dashoffset:0;stroke-opacity:1;marker:none;marker-start:none;marker-mid:none;marker-end:none;visibility:visible;display:inline;overflow:visible;enable-background:accumulate"
     d="M -105.98536,-355.55365 L 3182.9625,-355.55365M -105.98536,1437.1964 L 3182.9625,1437.1964M -105.98536,5.8022699 L 3182.9625,5.8022699M -105.98536,1084.6989 L 3182.9625,1084.6989M -105.98536,-47.319526 L 3182.9625,-47.319526" />
  <path
     style="font-size:1648.20751953px;font-style:normal;font-weight:normal;fill:#000000;fill-opacity:1;stroke:none;stroke-width:1px;stroke-linecap:butt;stroke-linejoin:miter;stroke-opacity:1;font-family:Lello"
     d="M 1376.6278,533.98066 C 1452.2772,550.07698 1508.8806,575.8302 1546.4383,611.24039 C 1598.4803,660.6012 1624.5018,720.9603 1624.5028,792.31788 C 1624.5018,846.50723 1607.333,898.41606 1572.9963,948.04451 C 1538.6577,997.67325 1491.5776,1033.8887 1431.7559,1056.691 C 1371.9325,1079.4934 1280.589,1090.8945 1157.7253,1090.8945 L 642.66043,1090.8945 L 642.66043,1061.1173 L 683.70466,1061.1173 C 729.30924,1061.1174 762.03729,1046.6312 781.88889,1017.6587 C 794.22881,998.88043 800.39885,958.9093 800.39904,897.74521 L 800.39904,192.7502 C 800.39885,125.1489 792.61924,82.495138 777.06016,64.788776 C 756.13551,41.182686 725.01704,29.379129 683.70466,29.378067 L 642.66043,29.378067 L 642.66043,-0.39911938 L 1114.2667,-0.39911938 C 1202.2563,-0.39802808 1272.8094,6.0402761 1325.9261,18.915812 C 1406.4042,38.231797 1467.8364,72.435288 1510.2228,121.52639 C 1552.6074,170.61943 1573.8001,227.08872 1573.8011,290.93444 C 1573.8001,345.66082 1557.1679,394.61876 1523.9042,437.8084 C 1490.6387,480.99934 1441.5466,513.05673 1376.6278,533.98066 L 1376.6278,533.98066 z M 954.91849,490.52207 C 974.76959,494.27834 997.43779,497.0951 1022.9231,498.97235 C 1048.4077,500.85078 1076.4411,501.7897 1107.0236,501.78911 C 1185.3558,501.7897 1244.2394,493.33942 1283.6747,476.43826 C 1323.1087,459.53833 1353.2882,433.65098 1374.2135,398.77614 C 1395.1372,363.90268 1405.5994,325.80938 1405.6002,284.49613 C 1405.5994,220.65042 1379.578,166.19309 1327.5357,121.12399 C 1275.492,76.056834 1199.5737,53.522769 1099.7805,53.521732 C 1046.1275,53.522769 997.84018,59.424548 954.91849,71.227086 L 954.91849,490.52207 z M 954.91849,1012.0252 C 1017.1551,1026.5115 1078.5872,1033.7546 1139.2151,1033.7545 C 1236.3257,1033.7546 1310.3662,1011.8912 1361.3369,968.16423 C 1412.306,924.43754 1437.791,870.38261 1437.7918,805.99929 C 1437.791,763.61407 1426.2557,722.83814 1403.1859,683.67138 C 1380.1145,644.50544 1342.5577,613.65523 1290.5154,591.12067 C 1238.4718,568.5871 1174.0888,557.32007 1097.3661,557.31954 C 1064.1011,557.32007 1035.6652,557.8566 1012.0585,558.92912 C 988.45099,560.0027 969.40434,561.88054 954.91849,564.56264 L 954.91849,1012.0252 z M 2235.3376,701.37674 C 2370.0049,729.27645 2437.3388,792.31817 2437.3396,890.50211 C 2437.3388,957.56798 2409.3054,1007.7331 2353.2391,1040.9976 C 2297.1716,1074.2622 2218.973,1090.8945 2118.6432,1090.8945 L 1754.8786,1090.8945 L 1754.8786,1061.1173 C 1802.6294,1061.1174 1832.8089,1052.1306 1845.4174,1034.1569 C 1858.0256,1016.1834 1864.3298,977.41942 1864.3299,917.86493 L 1864.3299,526.73756 C 1864.3298,468.79339 1861.513,434.72403 1855.8796,424.52938 C 1850.246,414.33607 1841.3933,405.081 1829.3216,396.76417 C 1817.2497,388.44872 1792.4354,384.29065 1754.8786,384.28994 L 1754.8786,353.70796 L 2094.4995,353.70796 C 2159.9552,353.7087 2212.9371,358.80569 2253.4453,368.99895 C 2293.9524,379.19366 2327.217,399.31336 2353.2391,429.35811 C 2379.26,459.4042 2392.2707,495.88792 2392.2714,538.8094 C 2392.2707,622.5079 2339.9595,676.69696 2235.3376,701.37674 L 2235.3376,701.37674 z M 1997.9249,682.8666 C 2021.5317,683.40353 2035.7496,683.67179 2040.5787,683.67138 C 2114.0823,683.67179 2167.1983,669.588 2199.9269,641.41997 C 2232.6544,613.25284 2249.0185,579.04935 2249.019,538.8094 C 2249.0185,492.13224 2232.3862,458.33115 2199.1221,437.406 C 2165.857,416.48217 2112.741,406.01992 2039.7739,406.01924 L 1997.9249,406.01924 L 1997.9249,682.8666 z M 1997.9249,1025.7066 C 2024.7509,1034.2911 2056.6741,1038.5833 2093.6947,1038.5833 C 2157.5409,1038.5833 2205.0234,1024.6337 2236.1424,996.73424 C 2267.2603,968.83501 2282.8195,932.88782 2282.8201,888.89254 C 2282.8195,839.53241 2262.6998,801.70737 2222.461,775.41731 C 2182.221,749.12788 2126.4224,735.98301 2055.0649,735.98266 C 2037.3592,735.98301 2018.3126,736.51954 1997.9249,737.59224 L 1997.9249,1025.7066 z "
     id="text2159" />
  <text
     xml:space="preserve"
     style="font-size:12px;font-style:normal;font-weight:normal;fill:#000000;fill-opacity:1;stroke:none;stroke-width:1px;stroke-linecap:butt;stroke-linejoin:miter;stroke-opacity:1;font-family:Lello"
     x="-471.24011"
     y="-946.41162"
     id="text2171"><tspan
       sodipodi:role="line"
       id="tspan2173"
       x="-471.24011"
       y="-946.41162" /></text>
</svg>
