<?xml version="1.0" encoding="UTF-8" standalone="no"?>
<svg
   xmlns:dc="http://purl.org/dc/elements/1.1/"
   xmlns:cc="http://creativecommons.org/ns#"
   xmlns:rdf="http://www.w3.org/1999/02/22-rdf-syntax-ns#"
   xmlns:svg="http://www.w3.org/2000/svg"
   xmlns="http://www.w3.org/2000/svg"
   xmlns:sodipodi="http://sodipodi.sourceforge.net/DTD/sodipodi-0.dtd"
   xmlns:inkscape="http://www.inkscape.org/namespaces/inkscape"
   width="4266.6665"
   height="2453.3333"
   viewBox="0 -410 3080 1900"
   id="svg2"
   sodipodi:version="0.32"
   inkscape:version="0.92.2 (5c3e80d, 2017-08-06)"
   sodipodi:docname="Cyrillic_letter_A_-_uppercase_and_lowercase.svg"
   inkscape:output_extension="org.inkscape.output.svg.inkscape"
   version="1.0">
  <metadata
     id="metadata15">
    <rdf:RDF>
      <cc:Work
         rdf:about="">
        <dc:format>image/svg+xml</dc:format>
        <dc:type
           rdf:resource="http://purl.org/dc/dcmitype/StillImage" />
      </cc:Work>
    </rdf:RDF>
  </metadata>
  <defs
     id="defs13" />
  <sodipodi:namedview
     inkscape:window-height="1017"
     inkscape:window-width="1920"
     inkscape:pageshadow="2"
     inkscape:pageopacity="0.0"
     guidetolerance="10.0"
     gridtolerance="10.0"
     objecttolerance="10.0"
     borderopacity="1.0"
     bordercolor="#666666"
     pagecolor="#ffffff"
     id="base"
     inkscape:zoom="0.34565219"
     inkscape:cx="2133.3333"
     inkscape:cy="1429.3082"
     inkscape:window-x="-8"
     inkscape:window-y="-8"
     inkscape:current-layer="svg2"
     width="4000px"
     height="2300px"
     inkscape:showpageshadow="false"
     showgrid="false"
     inkscape:window-maximized="1" />
  <path
     id="path3164"
     style="color:#000000;display:inline;overflow:visible;visibility:visible;fill:#f9f9f9;fill-opacity:1;fill-rule:evenodd;stroke:#b3b3b3;stroke-width:12.39130402;stroke-linecap:round;stroke-linejoin:round;stroke-miterlimit:4;stroke-dashoffset:0;stroke-opacity:1;marker:none;marker-start:none;marker-mid:none;marker-end:none;enable-background:accumulate"
     d="M -105.98536,-355.55365 H 3182.9625 M -105.98536,1437.1964 H 3182.9625 M -105.98536,5.8022699 H 3182.9625 M -105.98536,1084.6989 H 3182.9625 M -105.98536,-47.319526 H 3182.9625"
     inkscape:connector-curvature="0" />
  <text
     xml:space="preserve"
     style="font-style:normal;font-weight:normal;line-height:0%;font-family:Lello;fill:#000000;fill-opacity:1;stroke:none;stroke-width:1px;stroke-linecap:butt;stroke-linejoin:miter;stroke-opacity:1"
     x="-471.24011"
     y="-946.41162"
     id="text2171"><tspan
       sodipodi:role="line"
       id="tspan2173"
       x="-471.24011"
       y="-946.41162"
       style="font-size:12px;line-height:1.25"> </tspan></text>
  <g
     aria-label="Бб"
     transform="scale(0.98363573,1.0166365)"
     style="font-style:normal;font-variant:normal;font-weight:normal;font-stretch:normal;font-size:1601.7298584px;line-height:1.25;font-family:'Times New Roman';-inkscape-font-specification:'Times New Roman, ';letter-spacing:0px;word-spacing:0px;fill:#000000;fill-opacity:1;stroke:none;stroke-width:1.00108111"
     id="text28">
    <path
       d="M 1494.4496,0.95608497 1505.3989,232.4561 h -28.1554 Q 1452.2165,119.83447 1399.8162,89.332781 1348.1979,58.83109 1215.2418,58.83109 h -178.3176 v 419.98483 h 42.2331 q 194.7416,0 286.2467,25.02703 91.5051,24.24493 148.598,93.85136 57.875,69.60642 57.875,167.36826 0,118.09629 -87.5946,207.25508 -87.5946,89.15875 -301.8886,89.15875 H 733.47151 v -28.9375 q 98.54393,-3.1283 125.91724,-31.2837 27.37331,-28.15546 27.37331,-132.95614 V 194.13347 q 0,-80.55575 -11.73142,-108.711162 Q 864.08132,57.2669 838.27219,45.53548 812.46307,33.804061 742.85664,29.893587 V 0.95608497 Z M 1036.9242,998.12677 q 68.8244,10.94933 107.147,10.94933 96.1976,0 173.625,-64.13176 78.2095,-64.13177 78.2095,-177.53549 0,-117.3142 -81.3379,-173.62501 -81.3378,-57.09291 -206.473,-57.09291 -35.1942,0 -71.1706,6.25675 z"
       style="font-size:1601.7298584px;stroke-width:1.00108111"
       id="path30" />
    <path
       d="m 1742.3736,549.98653 q 89.9409,-226.02535 303.4528,-226.02535 149.3801,0 244.0135,111.83953 95.4156,111.83954 95.4156,255.74496 0,148.59798 -96.1977,270.60475 -96.1976,121.22468 -260.4375,121.22468 -167.3683,0 -254.9629,-138.43076 -87.5946,-139.21285 -87.5946,-338.64699 0,-154.85474 45.3615,-288.59293 45.3615,-134.52028 95.4156,-200.99833 50.054,-66.478042 115.75,-96.979733 65.6959,-30.501692 232.2821,-32.065881 119.6605,-1.56419 144.6875,-7.038852 25.027,-5.474663 47.7078,-31.283786 h 30.5017 q -25.8092,76.645276 -62.5676,109.493252 -36.7585,32.847975 -78.9916,44.5794 -42.2331,10.94932 -150.9442,14.0777 -117.3142,3.12838 -162.6757,17.98818 -44.5794,14.0777 -93.0693,70.38852 -48.4899,55.52872 -75.8632,146.2517 -26.5912,90.72298 -31.2838,197.86994 z m 276.8616,-172.84291 q -78.2095,0 -128.2636,64.91385 -50.054,64.91386 -50.054,204.12671 0,188.48481 67.2601,285.46455 67.2602,96.97977 155.6369,96.97977 81.3378,0 127.4814,-67.26018 46.9257,-68.04223 46.9257,-216.64022 0,-157.98312 -61.0034,-262.7838 -61.0034,-104.80068 -157.9831,-104.80068 z"
       style="font-size:1601.7298584px;stroke-width:1.00108111"
       id="path32" />
  </g>
</svg>
