<svg version="1.0" xmlns="http://www.w3.org/2000/svg"
  viewBox="0 0 968.452860 1200.643703"
 preserveAspectRatio="xMidYMid meet">
<metadata>
For more coloring pages, please visit ColoringAll.com
</metadata>
<g transform="translate(-0.185820,1201.143703) scale(0.100000,-0.100000)"
fill="#000000" stroke="none">
<path d="M87 12003 c-4 -3 -7 -363 -7 -799 l0 -793 53 -5 c131 -14 838 -55
970 -56 16 0 17 -128 17 -2552 0 -2750 -14 -5388 -30 -5716 -8 -161 -14 -212
-28 -245 -42 -94 -123 -158 -237 -187 -106 -27 -356 -67 -563 -90 -218 -25
-229 -27 -237 -48 -12 -29 -26 -727 -23 -1127 l3 -380 75 0 c41 1 1020 6 2175
13 2824 16 3729 31 4025 63 152 17 347 55 606 119 627 155 1118 367 1541 667
285 202 560 487 760 789 212 322 391 777 469 1192 32 175 42 1121 14 1352 -27
214 -84 407 -194 656 -159 357 -322 599 -566 844 -316 316 -651 517 -1192 715
-87 32 -155 61 -152 66 2 4 80 60 172 125 258 180 363 266 540 439 228 223
362 394 501 642 311 554 403 1256 260 1993 -173 895 -626 1484 -1442 1875
-646 309 -1046 387 -2187 425 -679 23 -5304 43 -5323 23z m1038 -145 c-190
-170 -784 -680 -883 -758 -33 -27 -45 -31 -55 -21 -9 9 -13 114 -15 421 l-4
410 508 0 508 0 -59 -52z m2264 -650 c-1 -387 -4 -713 -7 -725 -7 -22 -9 -21
-67 24 -116 91 -483 389 -751 610 l-271 223 -6 217 c-7 224 -21 318 -46 318
-25 0 -31 -52 -38 -283 l-6 -222 -421 -364 c-232 -200 -470 -407 -531 -460
l-110 -95 -180 -1 c-292 0 -696 24 -767 46 -16 5 -18 24 -18 213 l0 207 423
371 c232 204 485 428 562 497 l140 125 1048 0 1047 1 -1 -702z m521 -68 l0
-770 -215 0 -215 0 0 770 0 770 215 0 215 0 0 -770z m680 0 l0 -770 -295 0
-295 0 0 770 0 770 295 0 295 0 0 -770z m520 20 l0 -750 -215 0 -215 0 0 750
0 750 215 0 215 0 0 -750z m640 -60 l0 -810 -33 0 c-53 0 -433 49 -460 59 -13
5 -27 18 -31 28 -11 28 -25 636 -26 1106 l0 427 275 0 275 0 0 -810z m514 668
c19 -307 46 -1218 46 -1606 l0 -112 -242 121 c-134 67 -244 123 -246 124 -5 4
18 1548 23 1563 3 9 54 12 208 12 l204 0 7 -102z m386 22 c112 -21 204 -40
205 -42 2 -2 5 -588 7 -1304 l3 -1301 -46 133 c-81 232 -194 447 -308 588 -35
44 -67 92 -72 108 -31 108 -78 1366 -63 1701 l7 157 32 0 c18 0 124 -18 235
-40z m559 -155 c110 -41 234 -89 276 -106 l75 -32 0 -2456 0 -2456 -126 -63
c-70 -35 -125 -65 -123 -67 2 -1 74 -24 159 -50 470 -144 801 -304 1114 -539
338 -254 579 -540 756 -896 168 -336 238 -636 270 -1140 37 -606 -26 -1077
-212 -1575 -146 -391 -340 -689 -653 -1000 -399 -398 -901 -688 -1515 -873
-208 -63 -337 -96 -700 -176 l-336 -74 -1554 -11 c-1645 -12 -3768 -13 -4009
-2 l-144 6 384 350 c343 313 758 688 984 890 146 130 277 237 283 230 4 -4 5
-319 4 -701 -2 -382 0 -703 3 -714 9 -29 32 -25 38 8 10 47 26 535 37 1107 16
878 41 1649 53 1661 6 6 257 -203 749 -625 l287 -246 0 -204 1 -203 253 6
c138 4 536 11 882 16 1400 22 1542 41 2010 270 208 102 295 161 433 295 227
219 343 415 427 721 60 219 67 274 72 570 4 219 2 292 -12 384 -45 312 -150
580 -312 800 -78 105 -270 292 -383 373 -173 123 -471 257 -705 316 -232 59
-633 80 -1890 101 -346 6 -642 13 -657 16 l-28 6 0 744 0 744 255 0 255 0 0
-375 0 -375 -167 0 c-222 0 -329 -18 -297 -50 18 -18 190 -29 609 -40 660 -16
1007 -36 1535 -86 648 -61 1132 -132 1395 -206 718 -200 1183 -696 1384 -1480
117 -455 121 -946 10 -1490 -127 -627 -366 -1050 -791 -1396 -151 -123 -362
-250 -518 -312 -305 -122 -951 -210 -1900 -261 -113 -6 -810 -14 -1550 -17
-754 -4 -1351 -11 -1359 -16 -24 -15 6 -23 129 -35 389 -36 1321 -56 2024 -42
1476 30 2266 130 2806 357 401 168 772 530 991 967 144 286 275 695 300 942
18 164 18 1018 1 1115 -41 230 -115 442 -238 689 -131 262 -256 435 -453 623
-130 124 -235 201 -373 273 -99 51 -291 127 -447 176 -57 19 -75 29 -83 48 -5
15 -5 254 2 630 23 1358 31 2022 40 3366 9 1290 14 1617 25 1653 3 6 9 12 14
12 6 0 100 -34 210 -75z m701 -346 c147 -98 249 -176 379 -292 l104 -92 -6
-1810 c-4 -995 -9 -1819 -12 -1831 -6 -21 -263 -265 -420 -401 -101 -86 -208
-163 -228 -163 -9 0 -18 13 -22 33 -4 17 -9 993 -12 2168 -4 1986 0 2464 22
2499 8 12 29 0 195 -111z m-5720 -673 l0 -614 -267 -234 c-380 -332 -643 -557
-664 -568 -12 -7 -20 -6 -25 1 -14 23 -23 331 -24 776 0 374 2 453 14 460 7 4
164 135 347 289 388 328 601 503 612 503 4 1 7 -275 7 -613z m215 520 c99 -77
489 -396 742 -606 l162 -135 1 -653 0 -653 -137 118 c-237 202 -704 603 -806
693 l-98 85 3 605 c2 333 7 611 11 618 10 15 12 15 122 -72z m6160 -468 c34
-40 177 -325 250 -499 144 -340 193 -693 182 -1299 -6 -316 -18 -433 -63 -587
-55 -191 -166 -452 -268 -633 -56 -99 -186 -281 -219 -309 -16 -13 -17 -10
-12 40 20 190 26 378 35 1179 6 492 14 1163 19 1490 9 680 11 695 76 618z
m-4317 -398 c606 -12 1039 -27 1192 -41 232 -21 411 -70 615 -169 422 -204
657 -540 716 -1023 8 -67 10 -180 6 -345 -8 -330 -23 -407 -118 -611 -79 -167
-166 -290 -303 -426 -134 -133 -235 -206 -402 -289 -192 -96 -398 -157 -659
-196 -124 -19 -211 -22 -765 -30 -344 -5 -745 -9 -892 -10 l-268 0 0 1575 0
1575 191 0 c105 0 414 -5 687 -10z m-2079 -840 c-4 -239 -11 -522 -14 -628
l-7 -193 -332 -287 c-547 -474 -572 -495 -585 -473 -14 22 -21 283 -21 746 l0
450 133 111 c72 62 289 247 481 413 192 165 350 300 351 298 1 -1 -2 -198 -6
-437z m327 248 c127 -106 362 -305 522 -442 l292 -250 -1 -545 c-1 -300 -4
-583 -7 -629 l-7 -84 -165 138 c-91 75 -194 163 -230 194 -36 31 -197 170
-357 309 l-293 253 0 624 c0 343 4 624 8 624 4 0 111 -87 238 -192z m-346
-1831 l0 -624 -312 -264 c-329 -279 -586 -489 -599 -489 -16 0 -20 99 -25 645
l-6 570 263 225 c384 328 661 560 671 560 4 0 8 -281 8 -623z m336 456 c109
-92 340 -288 512 -436 l312 -270 0 -623 c0 -343 -4 -624 -8 -624 -5 0 -83 62
-173 137 -135 113 -858 722 -881 742 -8 8 8 1217 17 1231 3 5 10 10 14 10 4 0
97 -75 207 -167z m4364 -1318 c-12 -506 -28 -903 -37 -918 -10 -17 -393 27
-405 47 -4 6 -8 326 -8 712 l0 701 76 99 c168 217 237 339 325 572 l54 143 3
-448 c2 -246 -2 -655 -8 -908z m-551 -57 c3 -277 5 -568 3 -647 l-3 -144 -82
7 c-45 3 -137 14 -203 22 l-122 16 -6 30 c-3 17 -6 252 -6 522 l1 491 197 112
c115 65 201 108 206 103 5 -5 12 -235 15 -512z m-514 180 c7 -102 3 -903 -5
-911 -3 -3 -99 3 -215 14 -309 27 -554 39 -773 39 l-195 0 6 248 c7 245 15
345 37 475 l12 67 247 0 248 0 6 -307 c7 -297 16 -416 36 -436 28 -28 46 100
61 428 5 127 13 254 16 282 l5 53 67 19 c68 20 422 117 434 120 3 0 9 -41 13
-91z m-3626 -865 l1 -382 -162 -143 c-189 -167 -667 -578 -716 -616 -23 -17
-36 -22 -43 -15 -21 21 -28 220 -28 723 l0 505 156 135 c86 74 296 255 467
402 l311 268 6 -248 c3 -136 7 -419 8 -629z m302 704 c107 -89 343 -288 523
-441 l328 -280 -4 -617 c-1 -340 -6 -621 -10 -625 -10 -9 -115 77 -621 511
l-427 365 0 625 c0 344 3 625 8 625 4 0 95 -73 203 -163z m2099 81 c0 -7 -7
-85 -15 -173 -9 -88 -21 -250 -28 -360 l-12 -200 -264 -3 -264 -2 6 67 c4 38
9 174 12 303 3 129 8 268 11 308 l6 72 274 0 c212 0 274 -3 274 -12z m-2414
-2554 c-8 -22 -909 -794 -926 -794 -6 0 -10 224 -10 623 l1 622 310 265 c171
146 382 325 468 397 l156 133 3 -618 c1 -339 0 -622 -2 -628z m274 1120 c103
-83 480 -400 777 -654 l112 -95 0 -627 c1 -346 -3 -628 -7 -628 -9 0 -451 368
-811 676 l-245 209 2 460 c3 644 11 778 44 759 7 -4 65 -49 128 -100z m2395
-164 c858 -20 1024 -38 1306 -140 161 -59 406 -179 522 -257 117 -77 275 -226
357 -335 234 -310 335 -723 300 -1233 -24 -358 -87 -597 -220 -828 -96 -168
-253 -341 -415 -456 -178 -126 -489 -256 -743 -311 -250 -55 -461 -66 -1632
-85 -492 -8 -901 -15 -907 -15 -10 0 -13 375 -13 1841 l0 1842 508 -7 c279 -4
701 -11 937 -16z m-2291 -1293 c289 -243 537 -453 684 -580 l102 -88 -1 -532
c-1 -544 -6 -698 -24 -704 -12 -4 -233 179 -692 574 l-343 295 0 630 c0 476 3
627 12 622 6 -4 124 -102 262 -217z m-374 -412 l0 -614 -297 -253 c-423 -360
-470 -399 -548 -458 l-70 -53 -9 39 c-5 22 -9 295 -10 608 l-1 570 330 284
c509 439 586 503 596 497 5 -4 9 -250 9 -620z m6 -1362 l6 -608 -74 -65 c-41
-36 -284 -254 -539 -486 -976 -884 -1155 -1035 -1277 -1078 -23 -8 -73 -18
-112 -22 l-71 -7 4 624 c2 448 7 634 15 660 26 77 86 100 307 119 359 31 506
72 621 172 77 68 119 157 159 340 42 186 68 222 359 482 366 326 581 505 589
491 4 -8 10 -288 13 -622z M8026 204 c-10 -47 -15 -88 -12 -91 5 -6 9 7 30
110 7 37 10 67 6 67 -4 0 -15 -39 -24 -86z M8340 280 c0 -5 5 -10 10 -10 6 0
10 5 10 10 0 6 -4 10 -10 10 -5 0 -10 -4 -10 -10z M8886 204 c-10 -47 -15 -88
-12 -91 5 -6 9 7 30 110 7 37 10 67 6 67 -4 0 -15 -39 -24 -86z M8966 279 c-3
-8 -10 -41 -16 -74 -6 -33 -14 -68 -16 -77 -3 -10 -1 -18 3 -18 10 0 46 171
38 178 -2 3 -7 -1 -9 -9z M7729 251 c-38 -38 -41 -101 -7 -125 29 -20 79 -20
104 0 18 14 18 15 1 10 -53 -17 -69 -17 -92 -2 -69 45 21 166 94 126 12 -6 21
-7 21 -1 0 12 -25 21 -62 21 -19 0 -39 -10 -59 -29z M8730 199 c-28 -45 -49
-83 -47 -85 2 -3 12 7 21 21 14 21 24 25 66 25 43 0 50 -3 50 -19 0 -11 5 -23
10 -26 6 -3 10 -3 10 1 0 20 -44 164 -51 164 -4 0 -30 -37 -59 -81z m75 4 l7
-33 -42 0 c-42 0 -42 0 -28 23 8 12 21 32 29 44 15 25 22 18 34 -34z M7880
220 c-22 -22 -27 -79 -8 -98 19 -19 66 -14 88 8 22 22 27 79 8 98 -19 19 -66
14 -88 -8z m71 0 c25 -14 25 -54 -1 -80 -23 -23 -33 -24 -61 -10 -25 14 -25
54 1 80 23 23 33 24 61 10z M8090 220 c-22 -22 -27 -79 -8 -98 19 -19 66 -14
88 8 22 22 27 79 8 98 -19 19 -66 14 -88 -8z m71 0 c25 -14 25 -54 -1 -80 -23
-23 -33 -24 -61 -10 -25 14 -25 54 1 80 23 23 33 24 61 10z M8236 214 c-3 -16
-8 -47 -11 -69 -8 -51 10 -26 19 27 5 27 15 42 34 53 18 10 22 14 10 15 -9 0
-20 -5 -24 -11 -5 -8 -9 -8 -14 1 -5 8 -10 3 -14 -16z M8337 233 c-2 -4 -7
-26 -11 -48 -4 -22 -9 -48 -12 -57 -3 -10 -1 -18 4 -18 4 0 14 28 20 62 11 58
10 81 -1 61z M8395 230 c-1 -3 -5 -23 -9 -45 -4 -22 -9 -48 -12 -57 -3 -10 -1
-18 4 -18 5 0 13 20 17 45 7 53 44 87 74 68 17 -11 19 -28 8 -80 -4 -18 -3
-33 2 -33 16 0 24 99 11 115 -12 14 -87 18 -95 5z M8560 220 c-22 -22 -27 -79
-8 -98 7 -7 24 -12 38 -12 14 0 31 5 38 12 9 9 12 8 12 -5 0 -9 -12 -24 -26
-34 -21 -13 -32 -15 -55 -6 -16 6 -29 8 -29 3 0 -24 81 -27 102 -2 18 19 50
162 37 162 -5 0 -9 -5 -9 -10 0 -7 -6 -7 -19 0 -30 16 -59 12 -81 -10z m71 0
c29 -16 25 -65 -6 -86 -56 -37 -103 28 -55 76 23 23 33 24 61 10z M9061 221
c-23 -23 -28 -80 -9 -99 19 -19 88 -13 88 9 0 5 -11 4 -24 -2 -54 -25 -89 38
-46 81 23 23 33 24 62 9 16 -9 19 -8 16 3 -8 22 -64 22 -87 -1z M9190 220
c-22 -22 -27 -79 -8 -98 19 -19 66 -14 88 8 22 22 27 79 8 98 -19 19 -66 14
-88 -8z m71 0 c25 -14 25 -54 -1 -80 -23 -23 -33 -24 -61 -10 -25 14 -25 54 1
80 23 23 33 24 61 10z M9336 211 c-3 -14 -8 -44 -11 -66 -8 -51 10 -26 19 27
8 41 35 63 66 53 22 -7 24 -21 11 -77 -5 -22 -5 -38 0 -38 5 0 9 6 9 13 0 68
51 125 85 97 15 -13 15 -35 -1 -92 -3 -10 -1 -18 4 -18 6 0 13 23 17 50 9 63
-5 84 -49 76 -17 -4 -35 -6 -41 -6 -101 8 -104 7 -109 -19z M8980 120 c0 -5 5
-10 10 -10 6 0 10 5 10 10 0 6 -4 10 -10 10 -5 0 -10 -4 -10 -10z"/>
</g>
</svg>
